<?xml version="1.0" standalone="no"?>
<!DOCTYPE svg PUBLIC "-//W3C//DTD SVG 20010904//EN"
 "http://www.w3.org/TR/2001/REC-SVG-20010904/DTD/svg10.dtd">
<svg version="1.0" xmlns="http://www.w3.org/2000/svg"
 width="1024.000000pt" height="737.000000pt" viewBox="0 0 1024.000000 737.000000"
 preserveAspectRatio="xMidYMid meet">

<g transform="translate(0.000000,737.000000) scale(0.100000,-0.100000)"
fill="#000000" stroke="none">
<path d="M515 7214 c-65 -10 -188 -45 -210 -60 -36 -24 -41 -84 -21 -289 23
-231 34 -277 82 -327 l38 -38 -35 0 c-45 0 -100 -16 -111 -32 -13 -21 -9 -97
7 -127 17 -35 64 -75 118 -102 40 -21 40 -21 20 -41 -14 -13 -42 -22 -94 -29
-93 -11 -109 -27 -109 -109 0 -118 46 -171 160 -185 61 -8 80 -19 80 -45 0
-29 -25 -41 -104 -49 -58 -5 -79 -12 -91 -26 -20 -28 -28 -77 -21 -130 8 -48
37 -81 95 -104 17 -8 31 -19 31 -25 0 -16 -48 -66 -64 -66 -19 0 -25 -21 -17
-61 9 -46 37 -49 91 -7 56 43 79 75 91 127 13 60 -4 90 -66 116 -86 35 -102
75 -30 75 54 0 98 17 143 55 70 58 77 126 20 191 -31 35 -55 42 -170 53 -16 2
-48 46 -48 66 0 17 10 22 61 32 97 19 169 80 169 146 0 41 -41 89 -104 121
-65 34 -82 56 -44 56 31 0 117 57 127 83 13 35 -1 68 -49 117 -53 53 -49 37
-76 296 -9 89 -14 168 -11 177 4 10 35 22 83 32 62 14 100 16 198 10 67 -4
150 -9 186 -10 344 -14 384 -17 438 -36 94 -31 101 -38 147 -130 24 -48 50
-89 58 -92 8 -3 29 3 47 14 40 25 121 45 225 58 l80 9 52 58 52 58 62 -54 c60
-52 62 -53 88 -39 47 26 40 59 -26 119 -103 94 -135 95 -224 5 l-54 -55 -119
-20 c-65 -11 -122 -23 -128 -26 -11 -7 -28 13 -28 33 0 15 53 29 138 39 51 5
66 12 83 32 24 31 22 41 -16 56 -24 10 -49 10 -124 -1 -52 -8 -102 -18 -110
-23 -10 -5 -37 2 -81 24 -36 18 -83 37 -105 44 -61 17 -708 47 -780 36z"/>
<path d="M2258 7159 c-22 -12 -72 -174 -64 -205 7 -25 18 -29 104 -38 65 -6
82 0 82 29 0 24 -29 35 -92 35 -27 0 -30 3 -23 23 33 108 38 139 24 152 -10
10 -19 11 -31 4z"/>
<path d="M2441 7134 c-39 -33 -39 -55 -1 -88 26 -21 29 -29 20 -45 -30 -57 4
-101 76 -101 34 0 47 5 63 26 25 31 26 53 6 80 -8 10 -15 38 -15 62 0 85 -83
122 -149 66z m73 -20 c23 -22 20 -34 -8 -34 -28 0 -40 14 -32 35 7 19 21 19
40 -1z m56 -144 c0 -20 -15 -25 -44 -14 -28 11 -18 34 14 34 23 0 30 -4 30
-20z"/>
<path d="M2666 7094 c-3 -26 -6 -72 -6 -104 0 -46 4 -60 23 -78 13 -12 36 -22
51 -22 33 0 76 41 76 73 0 26 -38 67 -66 71 -15 3 -18 11 -16 40 3 41 -11 66
-38 66 -13 0 -19 -11 -24 -46z m92 -127 c4 -20 -25 -34 -40 -19 -15 15 -1 44
19 40 10 -2 19 -11 21 -21z"/>
<path d="M3350 7134 c-8 -1 -49 -7 -90 -14 -116 -18 -211 -42 -216 -55 -3 -6
16 -72 41 -146 41 -116 74 -221 86 -268 2 -7 -28 -35 -71 -65 -107 -74 -243
-257 -292 -392 -33 -91 -36 -254 -8 -363 12 -46 30 -101 41 -122 10 -21 19
-42 19 -47 0 -9 -39 -15 -205 -32 -49 -6 -164 -21 -255 -34 -135 -20 -436 -57
-461 -56 -4 0 -19 25 -34 56 -36 74 -94 104 -201 104 -86 0 -134 -16 -214 -70
-74 -50 -105 -95 -121 -178 -16 -76 -3 -139 40 -192 38 -47 70 -64 179 -95 88
-26 100 -27 270 -22 183 5 486 32 722 66 204 29 242 33 238 23 -4 -14 -148
-136 -245 -210 -46 -35 -83 -68 -83 -75 1 -22 145 -280 162 -290 26 -17 81 5
208 82 63 38 117 67 119 65 6 -6 -55 -81 -149 -183 -47 -51 -91 -104 -98 -117
-12 -22 -10 -25 25 -47 54 -33 240 -118 293 -134 l45 -14 145 152 c80 83 202
210 271 281 l125 130 66 -46 c84 -59 213 -120 234 -112 15 6 16 21 11 129 -4
67 -9 132 -13 144 -6 21 -5 21 79 -8 97 -32 175 -44 196 -30 37 24 22 297 -24
454 -13 42 -23 77 -22 78 3 1 57 7 207 24 189 21 241 31 250 44 8 14 53 209
72 316 l13 70 92 7 c124 10 166 22 197 59 21 25 26 41 26 85 0 74 -20 109 -81
140 -88 44 -212 65 -367 62 l-136 -3 -24 -80 c-42 -138 -114 -350 -121 -358
-4 -4 -72 -4 -150 -1 -141 7 -143 7 -152 33 -6 14 -11 40 -12 59 -2 33 -1 33
138 105 l139 72 19 130 c24 175 33 209 55 200 194 -82 314 -67 329 41 8 60
-12 113 -67 181 -41 50 -68 70 -138 106 -48 25 -112 55 -142 67 -61 23 -236
60 -288 60 -39 0 -39 1 -87 -179 -19 -74 -51 -173 -71 -220 -20 -47 -41 -100
-46 -118 l-11 -31 -136 5 c-75 3 -139 8 -143 12 -4 3 31 47 78 98 81 88 85 94
78 128 -4 21 -33 72 -71 123 l-65 87 128 6 c133 6 165 14 211 58 31 30 37 63
22 113 -11 33 -25 50 -62 75 -27 18 -65 37 -85 43 -75 22 -350 45 -412 34z
m285 -114 c151 -18 165 -28 116 -83 l-29 -32 -155 0 c-116 0 -158 -3 -170 -14
-10 -7 -17 -17 -17 -20 0 -13 80 -140 130 -206 l50 -66 -28 -27 c-15 -15 -66
-71 -114 -125 -118 -131 -117 -152 12 -176 83 -16 383 -43 431 -39 42 3 43 4
67 63 53 133 90 241 144 419 l20 68 50 -6 c205 -28 451 -201 374 -265 -19 -16
-79 -1 -195 49 -103 44 -126 48 -135 25 -5 -14 -21 -110 -57 -338 -10 -63 -14
-70 -43 -83 -89 -40 -211 -112 -228 -135 -17 -22 -18 -32 -10 -75 18 -91 42
-166 62 -194 25 -35 61 -40 285 -40 151 0 174 2 187 18 19 23 91 215 119 321
13 46 29 90 38 98 22 23 276 15 314 -10 31 -20 35 -48 10 -68 -12 -11 -45 -13
-128 -11 -84 2 -115 -1 -123 -11 -6 -7 -21 -62 -32 -122 -40 -203 -61 -300
-68 -307 -4 -4 -95 -17 -202 -28 -278 -30 -281 -30 -286 -45 -3 -7 4 -57 15
-112 48 -227 64 -373 42 -373 -4 0 -61 25 -125 56 -123 58 -179 74 -190 55 -4
-6 -1 -33 8 -59 18 -55 49 -222 43 -228 -2 -3 -32 17 -67 43 -35 27 -81 61
-102 78 -48 36 -54 33 -126 -61 -45 -59 -211 -243 -409 -454 l-51 -55 -79 26
c-43 14 -78 30 -78 37 0 6 25 37 56 69 30 32 80 90 110 128 29 39 56 72 59 75
5 5 111 144 140 183 8 11 37 43 63 71 76 80 86 126 27 126 -42 0 -184 -75
-310 -164 -96 -68 -178 -120 -285 -182 l-40 -23 -30 56 -29 56 45 39 c24 22
101 94 170 159 69 65 156 144 194 175 61 53 85 86 85 116 0 20 -94 5 -370 -58
-36 -8 -117 -21 -180 -29 -63 -8 -144 -19 -180 -25 -36 -5 -121 -14 -190 -20
-69 -5 -163 -15 -210 -20 -180 -22 -361 -16 -436 14 -51 21 -104 88 -104 132
0 46 27 114 58 148 52 54 148 81 205 55 33 -15 48 -44 54 -105 7 -66 23 -73
109 -50 64 17 214 38 394 57 63 6 144 17 180 25 36 7 115 18 175 24 102 10
274 34 338 46 36 7 35 33 -3 90 -17 24 -43 74 -57 111 -24 61 -27 82 -28 193
0 134 10 180 62 270 82 142 172 237 286 304 37 21 67 44 67 52 0 7 -14 47 -31
89 -24 62 -64 181 -96 286 -4 13 8 18 54 27 32 7 67 13 78 16 41 8 213 6 300
-4z"/>
<path d="M4538 7117 c-43 -22 -43 -22 -61 -107 -23 -111 -20 -144 13 -148 14
-2 29 -8 34 -12 5 -5 26 0 48 11 44 23 58 18 58 -17 0 -32 24 -40 55 -20 19
12 25 13 25 3 0 -7 7 -23 16 -35 14 -20 17 -21 43 -8 15 8 36 31 46 50 11 20
23 36 27 36 3 0 4 -25 1 -55 -5 -52 -4 -55 16 -55 15 0 31 15 53 50 35 56 48
63 48 24 0 -36 17 -64 39 -64 14 0 30 22 58 75 21 41 42 74 47 72 5 -2 16 -23
25 -47 11 -29 23 -46 36 -48 11 -2 28 -11 37 -19 16 -14 20 -14 43 1 32 21 45
54 45 111 0 68 -15 97 -48 93 -19 -2 -32 -13 -47 -40 -11 -21 -22 -38 -25 -38
-3 0 -12 15 -20 33 -8 17 -22 33 -32 35 -19 4 -62 -40 -79 -80 -14 -34 -29
-37 -29 -5 -1 74 -32 87 -77 32 l-29 -35 -13 35 c-21 59 -61 42 -98 -40 l-18
-40 -3 38 c-4 45 -24 49 -63 11 -27 -26 -27 -26 -34 -5 -4 13 -18 24 -34 27
-20 4 -30 14 -37 37 -8 29 -13 32 -43 29 l-33 -2 7 37 c4 21 8 39 9 40 1 1 22
7 48 14 43 12 51 11 114 -16 74 -32 136 -37 221 -17 38 8 60 8 83 1 44 -16
200 -2 200 17 0 11 -19 14 -86 14 -48 0 -103 5 -124 11 -28 9 -49 8 -86 -1
-69 -18 -122 -15 -179 11 -72 31 -143 33 -197 6z m22 -181 c0 -16 -18 -31 -27
-22 -8 8 5 36 17 36 5 0 10 -6 10 -14z m684 -11 c9 -25 -5 -76 -21 -73 -15 3
-16 7 -7 56 7 34 18 42 28 17z"/>
<path d="M2861 7121 c-10 -7 -14 -36 -15 -118 l-1 -108 25 0 c24 0 25 4 34 78
9 79 1 147 -19 154 -5 1 -16 -1 -24 -6z"/>
<path d="M5836 7095 c-10 -10 -14 -25 -11 -36 8 -24 8 -24 -49 2 -37 16 -50
18 -62 9 -25 -21 -15 -41 31 -61 24 -11 46 -23 49 -27 3 -4 -15 -28 -40 -52
-25 -24 -47 -55 -51 -68 -7 -29 10 -50 25 -30 42 51 86 98 93 98 5 0 9 -22 9
-49 0 -32 5 -53 15 -61 31 -25 37 3 34 139 -4 138 -13 166 -43 136z"/>
<path d="M878 7079 c-162 -24 -299 -124 -351 -257 -21 -53 -22 -148 -2 -196
23 -55 79 -111 135 -135 27 -12 51 -24 53 -29 3 -4 1 -72 -4 -152 -8 -142 -8
-145 -35 -165 -74 -54 -98 -82 -98 -116 1 -67 15 -110 51 -149 38 -44 81 -60
156 -60 41 0 49 -3 57 -24 22 -59 158 -105 308 -106 72 0 90 4 141 30 80 40
100 72 116 178 7 48 11 91 8 95 -4 7 117 0 145 -9 6 -2 12 -13 12 -24 0 -37
38 -97 77 -121 33 -21 51 -24 129 -24 84 0 98 3 162 34 l70 34 58 -47 c119
-97 189 -110 284 -53 47 27 60 42 89 99 41 83 46 170 11 238 -20 39 -20 44 -6
88 25 80 26 98 12 146 -17 57 -55 108 -109 147 -38 27 -43 37 -55 96 -7 37
-22 84 -33 106 -32 62 -99 122 -163 146 -91 34 -149 29 -516 -40 l-105 -20
-20 28 c-11 15 -53 62 -95 103 -65 66 -87 81 -165 113 -49 20 -121 41 -160 47
-78 11 -78 11 -157 -1z m178 -119 c125 -20 210 -79 285 -198 16 -26 35 -64 41
-84 6 -20 17 -39 24 -42 8 -3 58 8 111 25 260 80 430 106 511 78 62 -21 102
-104 102 -210 0 -62 -34 -138 -95 -214 -74 -92 -68 -115 29 -115 233 -1 345
-122 256 -277 -56 -97 -91 -94 -193 19 -39 43 -81 81 -94 84 -15 4 -41 -6 -82
-31 -101 -62 -177 -80 -230 -52 -56 28 -46 139 21 250 49 81 45 100 -19 105
-37 3 -44 -1 -77 -39 -30 -35 -54 -84 -72 -147 -3 -9 -23 -12 -76 -10 l-73 3
0 155 c0 85 -4 161 -8 168 -5 6 -25 12 -46 12 -67 0 -70 -7 -71 -170 -2 -199
-18 -390 -35 -417 -29 -44 -222 -60 -282 -23 -18 11 -33 26 -33 35 0 19 40 45
104 66 l51 18 -2 68 c-1 37 -4 160 -6 273 l-4 204 -34 14 c-19 8 -79 20 -134
28 -179 25 -247 58 -289 141 -29 59 -15 106 58 181 50 53 99 80 180 97 76 17
105 17 182 5z m-124 -529 l28 -6 4 -115 c3 -63 8 -154 12 -201 l7 -87 -30 -6
c-16 -4 -53 -27 -82 -53 -48 -42 -55 -45 -94 -40 -100 14 -86 106 21 138 61
18 67 28 53 96 -6 31 -11 107 -11 170 l0 113 33 -1 c17 -1 44 -4 59 -8z m1368
-87 c16 -25 19 -42 14 -69 -3 -19 -9 -35 -13 -35 -21 1 -106 37 -108 45 0 6
12 31 29 57 34 52 47 53 78 2z"/>
<path d="M5370 7039 c-7 -11 -9 -27 -6 -36 4 -8 2 -64 -4 -123 -11 -117 -8
-142 18 -133 26 10 32 24 32 84 0 50 3 57 23 63 44 12 47 8 47 -48 0 -63 18
-87 45 -60 14 14 15 30 10 93 -10 128 -15 159 -30 171 -25 21 -47 -6 -39 -47
5 -25 3 -38 -7 -44 -26 -16 -39 -9 -39 20 0 37 -16 81 -29 81 -6 0 -15 -9 -21
-21z"/>
<path d="M6365 7048 c-27 -6 -106 -11 -175 -12 -145 -1 -159 -7 -209 -82 -26
-39 -31 -57 -31 -105 0 -50 -3 -60 -22 -70 -13 -6 -33 -23 -45 -38 -43 -52 17
-83 78 -40 19 13 39 19 52 16 12 -3 42 -11 67 -17 25 -6 62 -9 83 -7 36 5 39
3 78 -49 40 -55 60 -64 92 -40 25 19 21 45 -17 108 l-33 56 19 58 c12 36 17
70 14 90 l-6 32 100 12 c116 14 147 31 136 73 -6 26 -9 27 -69 26 -34 -1 -84
-6 -112 -11z m-168 -58 c37 -13 73 -74 73 -125 0 -29 -7 -44 -32 -67 -46 -43
-73 -51 -132 -38 -109 23 -137 108 -63 189 42 45 98 60 154 41z"/>
<path d="M6086 6944 c-8 -21 1 -34 23 -34 11 0 29 -8 42 -19 20 -16 21 -21 10
-34 -7 -9 -25 -17 -39 -19 -19 -2 -27 -9 -27 -23 0 -15 8 -21 33 -23 25 -3 39
3 62 27 38 38 40 82 5 116 -29 30 -99 35 -109 9z"/>
<path d="M8947 7044 c-4 -4 -7 -20 -7 -35 0 -40 35 -60 110 -62 54 -2 64 1 81
21 31 39 12 58 -68 67 -37 3 -77 9 -88 11 -11 3 -24 2 -28 -2z"/>
<path d="M4018 7030 c-22 -13 -23 -53 -3 -70 9 -8 63 -14 143 -17 l129 -5 22
30 c31 45 20 62 -44 62 -28 0 -92 2 -141 5 -56 4 -95 2 -106 -5z"/>
<path d="M7983 7033 c-62 -4 -63 -4 -63 -33 0 -20 7 -33 22 -41 28 -15 138
-15 166 0 31 17 46 49 31 67 -11 14 -20 14 -156 7z"/>
<path d="M8262 7028 c-37 -37 6 -68 96 -68 64 0 72 2 91 26 35 44 20 54 -83
54 -58 0 -96 -4 -104 -12z"/>
<path d="M6927 7004 c-18 -24 -18 -26 -1 -45 24 -27 123 -27 147 -1 38 42 7
72 -71 72 -49 -1 -60 -4 -75 -26z"/>
<path d="M7275 7023 c-41 -4 -74 -33 -75 -64 0 -23 21 -29 104 -29 60 0 76 4
91 20 23 25 13 65 -17 74 -23 6 -31 6 -103 -1z"/>
<path d="M7540 6990 l-23 -33 20 -17 c16 -12 50 -19 129 -23 115 -8 134 -2
134 39 0 38 -25 54 -89 54 -32 0 -78 3 -103 6 -42 6 -46 4 -68 -26z"/>
<path d="M8598 6994 c-11 -23 -10 -28 12 -46 20 -16 33 -18 79 -12 76 9 93 19
89 52 -3 27 -4 27 -86 30 -80 3 -82 2 -94 -24z"/>
<path d="M9309 6999 c-13 -26 -11 -37 11 -59 17 -17 33 -20 119 -20 112 0 146
9 156 41 13 39 -11 47 -148 51 -114 4 -129 2 -138 -13z"/>
<path d="M5617 6994 c-4 -4 -7 -16 -7 -26 0 -14 6 -19 23 -16 14 2 22 10 22
23 0 20 -25 32 -38 19z"/>
<path d="M6669 6980 c-88 -15 -196 -85 -237 -153 -64 -107 -12 -236 109 -271
l56 -17 6 -51 c6 -51 5 -53 -29 -82 -49 -40 -63 -76 -52 -134 18 -96 62 -124
191 -121 45 2 102 -3 127 -10 74 -21 215 4 260 46 9 8 17 39 20 75 l5 62 40 8
c29 6 41 5 44 -4 2 -6 14 -22 27 -35 31 -30 117 -32 173 -3 l39 19 38 -30 c44
-35 72 -43 124 -36 57 7 99 42 127 105 30 63 27 114 -7 162 l-21 30 25 53 c28
56 26 90 -9 144 -17 25 -111 73 -143 73 -10 0 -31 14 -48 31 -63 68 -166 82
-349 49 -66 -11 -144 -27 -172 -35 -29 -7 -53 -10 -53 -6 0 15 -96 105 -125
116 -43 18 -113 24 -166 15z"/>
<path d="M2942 6938 c-16 -16 -15 -67 3 -118 17 -48 13 -74 -17 -107 l-21 -22
-44 44 c-29 30 -53 45 -70 45 -14 0 -64 -26 -115 -60 -49 -33 -93 -60 -97 -60
-4 0 -18 11 -31 25 -23 25 -23 25 -4 40 10 8 25 15 31 15 15 0 28 44 19 65 -3
10 -19 15 -44 15 -32 0 -54 -12 -130 -67 -90 -67 -91 -68 -89 -108 2 -34 6
-41 26 -43 13 -2 36 6 52 17 36 27 40 27 72 -7 l26 -27 -19 -30 c-27 -40 -25
-71 4 -90 29 -19 61 -8 71 25 7 24 83 93 160 145 l57 39 19 -24 c25 -34 24
-43 -12 -69 -69 -51 -182 -168 -204 -211 -14 -28 -34 -50 -53 -58 -37 -16 -52
-49 -52 -116 0 -59 8 -70 77 -105 42 -21 42 -22 38 -64 -3 -23 -10 -80 -15
-126 -10 -88 -18 -101 -61 -101 -30 0 -136 -35 -155 -51 -19 -16 -17 -30 9
-63 l23 -29 65 20 c35 12 89 26 120 32 31 7 63 20 71 29 15 17 41 240 41 342
0 29 6 52 17 65 50 57 51 93 5 144 -19 21 -35 43 -35 49 0 15 128 138 182 175
26 18 49 42 53 54 3 12 15 28 28 34 37 19 78 62 93 98 46 109 -30 303 -94 239z
m-316 -708 c26 -10 26 -11 9 -30 -33 -37 -86 -12 -55 25 15 18 12 18 46 5z"/>
<path d="M8460 6910 c-296 -9 -546 -28 -580 -44 -23 -10 -25 -18 -28 -81 -2
-39 4 -131 12 -205 8 -74 17 -191 20 -260 7 -157 20 -592 20 -645 0 -22 -4
-256 -8 -520 -4 -289 -4 -485 2 -493 5 -8 44 -18 88 -23 43 -5 158 -25 254
-45 268 -53 557 -88 860 -104 102 -5 248 -19 325 -30 169 -24 160 -24 179 -4
20 20 21 89 1 424 -8 140 -14 282 -13 315 1 76 -22 507 -28 517 -5 7 -18 210
-34 523 -5 105 -9 281 -9 393 0 136 -3 208 -11 217 -23 28 -341 64 -615 69
-104 2 -300 1 -435 -4z m576 -120 c60 -6 162 -18 227 -27 l117 -17 1 -101 c1
-55 3 -111 4 -125 1 -14 5 -88 9 -165 3 -77 13 -207 21 -290 47 -497 65 -957
53 -1382 l-3 -93 -41 0 c-23 0 -86 4 -140 9 -55 6 -162 13 -239 16 -127 6
-348 29 -530 56 -38 5 -166 29 -284 52 l-214 41 7 441 c7 440 8 709 1 860 -16
334 -28 510 -40 572 -20 99 -20 132 3 131 9 -1 116 4 237 11 364 20 667 24
811 11z"/>
<path d="M8595 6615 c-281 -28 -333 -56 -386 -200 -29 -81 -59 -354 -60 -540
0 -114 16 -455 25 -525 6 -48 55 -160 96 -219 68 -102 103 -121 305 -167 162
-37 442 -11 553 53 56 32 126 87 156 122 12 13 28 31 36 40 18 19 43 72 36 78
-2 2 1 25 8 51 10 44 5 474 -8 557 -2 17 -9 80 -15 140 -16 161 -25 208 -65
331 -41 127 -65 168 -121 205 -67 43 -129 56 -410 83 -16 1 -84 -3 -150 -9z
m275 -121 c103 -9 242 -57 253 -88 5 -11 0 -13 -22 -6 -19 5 -38 3 -58 -7 -29
-14 -33 -13 -102 32 -70 45 -73 46 -97 31 -28 -19 -53 -56 -120 -183 l-49 -91
-65 -17 c-116 -31 -244 -54 -293 -55 -48 0 -48 1 -43 28 3 15 8 52 11 82 23
199 95 257 345 279 52 5 113 7 135 5 22 -2 69 -6 105 -10z m82 -165 c31 -16
51 -19 84 -14 35 5 47 2 63 -14 12 -12 21 -32 21 -46 0 -22 -4 -25 -39 -25
-22 0 -60 9 -85 20 -25 10 -53 17 -61 14 -8 -3 -26 -29 -41 -57 -59 -116 -63
-122 -112 -140 -68 -24 -122 -71 -122 -108 0 -23 5 -30 26 -35 21 -5 31 -1 48
19 42 51 100 59 146 21 66 -56 71 -153 10 -207 -30 -26 -37 -29 -81 -23 -26 4
-60 13 -75 21 -20 10 -33 11 -46 4 -46 -24 14 -92 91 -104 73 -12 80 -16 102
-52 25 -41 26 -42 66 -92 23 -29 31 -32 60 -28 18 3 54 20 79 36 66 45 87 48
118 14 30 -32 33 -55 10 -74 -12 -10 -22 -10 -44 -2 -25 9 -37 6 -97 -27 l-68
-38 -39 31 c-22 18 -56 47 -75 67 -92 90 -98 92 -397 109 -94 6 -182 14 -196
20 -24 9 -25 14 -31 103 -4 51 -3 131 1 178 l7 84 50 18 c28 10 86 25 130 33
82 15 218 50 268 68 28 10 40 27 112 162 21 39 39 73 42 78 7 12 32 8 75 -14z
m292 -323 c17 -134 27 -324 19 -373 l-6 -32 -28 31 c-27 28 -33 30 -72 24 -23
-4 -70 -22 -103 -41 l-62 -35 -30 47 c-31 47 -31 48 -12 68 29 31 60 112 60
156 0 52 -29 106 -81 154 -29 26 -39 42 -33 50 30 40 64 96 64 106 0 13 38 8
95 -15 22 -8 59 -15 81 -16 35 0 45 5 60 27 l18 28 7 -29 c5 -16 15 -83 23
-150z m-814 -496 c47 -5 145 -14 218 -21 132 -12 134 -12 180 -49 26 -21 72
-63 102 -94 30 -31 59 -56 65 -56 6 0 46 22 89 50 62 38 83 47 97 40 10 -6 29
-10 43 -10 31 0 32 -4 6 -73 -56 -148 -251 -237 -494 -225 -138 7 -224 35
-312 102 -56 41 -75 63 -102 116 -18 36 -34 85 -37 110 -2 25 -7 62 -10 83
l-7 37 39 0 c21 0 76 -4 123 -10z"/>
<path d="M8475 6419 c-91 -28 -129 -74 -84 -102 11 -7 26 -3 55 15 49 32 93
42 165 39 69 -2 93 17 64 49 -24 26 -116 26 -200 -1z"/>
<path d="M8530 6298 c-32 -24 -45 -41 -45 -59 0 -36 45 -38 79 -5 15 16 36 26
54 26 16 0 35 7 42 16 18 21 -5 43 -51 50 -29 5 -42 0 -79 -28z"/>
<path d="M8504 5945 c-29 -38 -45 -43 -65 -19 -7 8 -26 22 -43 31 -27 14 -31
14 -43 -3 -20 -28 -16 -44 21 -78 l35 -31 -30 -44 c-33 -50 -35 -63 -13 -85
24 -24 38 -20 78 24 l36 40 38 -25 c78 -53 122 -12 57 55 l-36 37 25 38 c29
41 32 65 14 83 -21 21 -46 13 -74 -23z"/>
<path d="M9025 6082 c-16 -10 -36 -26 -44 -36 -12 -15 -12 -19 0 -31 12 -13
21 -11 67 10 44 21 53 29 50 47 -4 30 -34 34 -73 10z"/>
<path d="M9067 5949 c-25 -13 -37 -26 -35 -37 3 -14 13 -16 53 -14 56 3 98 25
93 50 -5 25 -65 26 -111 1z"/>
<path d="M9064 5835 c-11 -28 4 -41 61 -54 50 -11 59 -11 73 3 22 21 3 41 -53
55 -58 15 -75 14 -81 -4z"/>
<path d="M9030 5744 c-18 -21 3 -41 62 -59 81 -24 93 20 16 55 -52 24 -62 24
-78 4z"/>
<path d="M8720 5400 c-8 -5 -35 -10 -60 -10 -58 0 -87 -8 -94 -26 -30 -78 190
-87 226 -9 19 42 -29 73 -72 45z"/>
<path d="M8780 5269 c-28 -12 -162 -15 -179 -5 -21 14 -51 -4 -51 -30 0 -73
246 -89 302 -20 22 26 22 31 2 50 -18 18 -38 19 -74 5z"/>
<path d="M8208 5060 c-9 -6 -19 -24 -23 -41 -14 -64 84 -110 129 -60 20 22 15
71 -9 91 -19 16 -77 22 -97 10z"/>
<path d="M8429 4950 c-18 -10 -35 -72 -42 -152 -3 -36 0 -51 13 -63 21 -19 74
-19 90 0 7 8 15 56 18 107 4 80 3 93 -13 105 -22 15 -43 16 -66 3z"/>
<path d="M9138 4910 c-26 -28 -39 -51 -40 -73 -4 -76 1 -92 36 -124 33 -30 41
-33 98 -33 77 1 110 25 131 97 14 45 13 50 -9 95 -28 55 -67 78 -132 78 -40 0
-50 -5 -84 -40z"/>
<path d="M8556 4911 c-10 -11 -20 -39 -22 -63 -2 -24 -6 -60 -10 -81 -8 -49
15 -77 62 -77 36 0 43 8 55 54 6 28 7 29 8 6 1 -33 27 -70 49 -70 10 0 27 7
39 15 28 19 41 127 24 186 -11 36 -15 39 -47 39 -30 0 -37 -5 -49 -32 -11 -26
-14 -28 -15 -12 0 26 -30 54 -57 54 -11 0 -28 -9 -37 -19z m91 -123 c-3 -8 -6
-5 -6 6 -1 11 2 17 5 13 3 -3 4 -12 1 -19z"/>
<path d="M8192 4903 c-12 -10 -24 -30 -28 -45 -8 -37 41 -88 85 -88 36 0 71
40 71 81 0 56 -83 90 -128 52z"/>
<path d="M8885 4896 c-46 -20 -65 -48 -72 -103 -5 -43 -2 -54 17 -76 43 -49
126 -66 180 -37 25 14 52 75 51 117 -2 84 -93 136 -176 99z"/>
<path d="M9581 6783 c-12 -13 -12 -30 -2 -107 6 -50 15 -146 20 -213 9 -129
24 -173 59 -173 47 0 47 7 7 438 -2 24 -42 72 -59 72 -6 -1 -17 -8 -25 -17z"/>
<path d="M5567 6760 c-61 -16 -90 -35 -149 -99 -48 -52 -63 -78 -106 -190 -97
-249 -168 -511 -222 -826 -17 -93 -30 -173 -30 -177 0 -5 -15 -8 -33 -8 -45 0
-140 -26 -210 -57 -73 -33 -155 -119 -198 -209 -25 -53 -32 -84 -37 -150 -5
-79 -3 -87 28 -150 17 -36 30 -67 28 -69 -1 -1 -48 -31 -103 -66 -384 -240
-735 -522 -807 -647 -80 -140 -30 -335 103 -403 42 -21 114 -25 169 -9 25 7
39 6 51 -3 9 -6 114 -86 234 -177 335 -254 415 -310 446 -310 36 0 53 23 44
57 -15 59 -17 117 -5 159 30 104 124 124 257 54 84 -44 104 -48 127 -24 21 21
20 52 -3 105 -44 101 -36 176 21 200 32 13 23 15 195 -46 79 -28 95 -26 112
11 10 22 7 33 -20 80 -37 66 -48 150 -29 219 10 36 17 45 29 40 141 -55 260
-76 426 -78 77 -1 156 2 176 6 l36 7 5 -82 c5 -93 28 -149 77 -191 86 -72 170
-24 248 141 90 194 267 646 289 741 20 83 14 187 -13 233 -17 29 -25 33 -67
36 -39 3 -56 -2 -90 -24 -49 -33 -143 -128 -187 -189 -23 -32 -39 -45 -57 -45
-64 0 -304 109 -387 175 l-30 25 20 35 c23 44 70 87 128 117 31 17 61 23 117
24 41 1 81 2 88 3 7 0 17 12 24 26 10 22 6 29 -44 83 -62 67 -89 117 -96 178
-4 38 -1 43 29 66 53 39 117 60 204 65 138 10 146 30 51 132 -80 85 -100 122
-93 173 3 21 10 45 17 53 29 35 128 91 212 120 79 27 94 36 103 59 6 17 6 33
-1 43 -10 16 -7 15 -239 101 -88 32 -194 76 -235 96 -73 38 -204 130 -267 189
l-32 30 24 46 c30 60 39 109 26 144 -17 45 -88 113 -142 136 -57 25 -157 35
-212 21z m-1542 -2769 c10 -18 -17 -24 -111 -25 -84 -2 -94 0 -94 16 0 16 10
18 99 18 55 0 102 -4 106 -9z m375 -15 c-18 -19 -30 -21 -115 -18 -65 3 -95 0
-95 -7 0 -6 -5 -11 -10 -11 -18 0 9 40 33 50 12 4 64 8 115 7 l93 -1 -21 -20z
m231 -8 c10 -19 8 -20 -35 -16 -38 4 -46 2 -46 -12 0 -9 5 -21 12 -28 6 -6 9
-14 6 -17 -3 -3 -13 10 -22 28 -8 19 -23 40 -32 48 -16 13 -14 15 17 19 52 8
88 0 100 -22z m-7 -134 c3 -8 2 -12 -4 -9 -6 3 -10 10 -10 16 0 14 7 11 14 -7z
m-123 -91 c13 -16 12 -17 -3 -4 -17 13 -22 21 -14 21 2 0 10 -8 17 -17z m90
-81 c-7 -2 -18 1 -23 6 -8 8 -4 9 13 5 13 -4 18 -8 10 -11z"/>
<path d="M3703 6743 c-24 -9 -15 -77 12 -103 14 -13 25 -32 25 -42 0 -21 -25
-75 -47 -99 -20 -24 -4 -83 24 -87 50 -7 123 113 123 202 0 34 -7 46 -50 88
-48 46 -61 52 -87 41z"/>
<path d="M5203 6695 c-24 -17 -69 -90 -78 -128 -7 -26 -7 -26 -83 -21 -89 7
-255 -8 -295 -27 -24 -11 -28 -18 -25 -48 3 -33 9 -39 113 -101 61 -36 134
-82 164 -103 63 -44 94 -47 118 -11 23 36 14 47 -95 119 -49 33 -98 66 -109
73 -15 10 8 12 129 7 l147 -6 14 28 c8 15 17 44 21 63 3 19 20 55 36 79 30 44
37 66 23 74 -25 14 -62 15 -80 2z"/>
<path d="M4883 6683 c-14 -5 -18 -43 -5 -43 18 0 45 28 38 38 -8 13 -13 14
-33 5z"/>
<path d="M6006 6610 c-30 -36 -24 -52 31 -89 l36 -23 -5 -74 c-4 -60 -2 -76
12 -89 26 -23 53 -18 106 20 78 55 128 90 141 98 8 5 23 -2 38 -19 l25 -27
-48 -56 c-71 -82 -89 -116 -73 -135 28 -34 57 -19 130 66 85 99 96 119 87 154
-9 35 -94 120 -127 128 -25 5 -69 -18 -166 -90 -23 -16 -23 -16 -23 27 0 24
-4 49 -8 54 -11 16 -108 85 -120 85 -6 0 -22 -14 -36 -30z"/>
<path d="M7760 6335 c-8 -9 -14 -47 -15 -88 l-3 -72 -143 -13 c-79 -7 -151
-13 -159 -13 -8 0 -43 10 -78 23 l-63 23 -39 -22 c-21 -13 -45 -23 -53 -23
-36 0 -37 -96 -1 -157 32 -55 96 -103 138 -103 17 0 51 12 75 26 l45 25 80
-25 c154 -47 163 -48 196 -31 23 12 30 22 28 38 -3 24 -4 24 -180 73 -79 22
-98 30 -98 45 0 13 8 19 23 20 28 1 106 7 182 14 55 5 61 3 80 -21 20 -25 23
-26 51 -13 23 12 29 20 27 44 -13 214 -15 230 -37 247 -26 22 -40 22 -56 3z
m-417 -244 c32 -12 54 -65 37 -86 -25 -30 -60 -14 -90 43 -10 20 -9 26 7 38
22 16 17 16 46 5z"/>
<path d="M9620 6111 c-17 -32 -12 -165 7 -206 32 -68 108 -53 84 16 -6 17 -11
62 -11 99 0 57 -3 70 -23 88 -29 27 -43 28 -57 3z"/>
<path d="M6883 6000 c-102 -3 -186 -9 -191 -15 -5 -5 -19 -46 -31 -91 l-23
-81 -43 -1 c-76 -1 -85 -7 -85 -61 l0 -48 -60 -7 c-58 -7 -60 -8 -60 -37 0
-34 27 -49 90 -49 l39 0 6 -57 c3 -32 10 -94 15 -137 16 -132 23 -120 -89
-156 -117 -37 -161 -62 -161 -90 0 -33 64 -93 149 -140 l81 -45 -33 -17 c-56
-31 -156 -58 -251 -68 -98 -11 -144 -33 -138 -66 6 -31 23 -35 112 -29 113 7
227 37 319 83 130 65 174 128 111 159 -14 6 -65 31 -113 54 -49 24 -90 46 -93
50 -2 5 28 18 68 30 149 44 157 57 138 222 -7 62 -13 153 -14 204 -1 50 -5 95
-9 99 -17 17 -4 24 42 24 58 0 71 13 82 78 4 26 12 59 18 75 l11 27 127 0
c115 1 206 10 218 22 3 2 8 18 11 35 6 29 4 31 -27 34 -19 2 -116 2 -216 -1z"/>
<path d="M4830 5893 c-60 -31 -81 -90 -85 -235 l-3 -123 -80 -40 c-44 -22 -96
-52 -115 -67 -29 -23 -46 -28 -89 -28 -88 0 -125 -15 -138 -56 -15 -43 -16
-146 -6 -334 l7 -145 -41 -33 c-22 -19 -71 -52 -108 -74 -99 -60 -145 -93
-208 -148 -32 -28 -60 -50 -64 -50 -4 0 -51 29 -105 65 -53 36 -104 65 -114
65 -27 0 -61 -29 -61 -52 0 -12 7 -48 16 -80 9 -32 14 -61 11 -64 -3 -4 -21 3
-39 14 -19 12 -55 26 -82 32 -41 9 -53 8 -74 -6 -25 -16 -25 -17 -19 -123 4
-58 9 -124 13 -145 l7 -39 -54 32 c-104 62 -139 76 -156 65 -53 -33 -41 -79
29 -118 184 -100 201 -107 242 -104 39 3 41 5 44 37 2 19 -4 75 -12 126 -9 51
-16 109 -16 128 l0 36 78 -37 c55 -25 91 -36 127 -36 46 -1 50 1 53 24 1 14
-8 53 -22 87 l-24 61 62 -33 c90 -49 116 -52 157 -18 19 15 36 30 39 33 24 28
143 117 208 155 45 27 108 71 142 98 l60 49 -1 97 c-1 53 -4 143 -8 200 -3 58
-4 124 -2 148 3 43 3 43 43 43 37 0 40 -2 34 -22 -25 -98 -38 -168 -33 -181 7
-18 65 -33 79 -19 5 5 24 66 42 135 36 143 40 147 153 198 37 17 82 43 101 57
33 25 34 27 27 76 -10 67 -7 183 6 224 14 42 45 60 67 38 22 -22 20 -109 -4
-175 -20 -58 -13 -74 38 -86 26 -7 29 -3 49 41 17 38 22 70 23 139 1 79 -2 96
-24 135 -25 44 -26 45 -80 48 -37 2 -66 -3 -90 -15z"/>
<path d="M6782 5817 c-14 -16 -44 -291 -35 -314 5 -13 23 -14 120 -9 l113 7
10 -26 c5 -14 10 -30 10 -35 0 -10 -42 -23 -140 -42 -61 -12 -66 -15 -77 -48
-14 -41 -17 -228 -4 -249 7 -10 37 -13 142 -10 l134 4 0 -69 0 -70 -122 -27
c-67 -15 -126 -30 -132 -34 -13 -7 -15 -243 -3 -262 14 -22 60 -24 181 -9 67
9 126 14 130 12 4 -3 8 -26 10 -52 2 -54 -7 -64 -59 -64 -71 0 -223 -28 -238
-44 -24 -24 -20 -235 6 -254 13 -11 46 -12 150 -7 113 6 133 4 138 -9 3 -8 1
-79 -6 -158 -34 -429 -38 -494 -32 -500 4 -4 52 -12 106 -18 54 -5 107 -12
119 -15 12 -3 28 -1 35 3 11 8 79 223 97 310 9 46 29 40 47 -15 84 -244 126
-353 138 -353 24 0 246 166 255 191 3 9 -23 104 -59 210 l-65 194 22 18 c12 9
64 38 115 63 106 53 152 87 152 115 0 19 -82 66 -182 104 -27 10 -48 21 -48
24 0 4 15 14 33 24 44 24 117 93 117 111 0 22 -28 34 -148 64 l-107 27 -7 60
c-3 33 -12 119 -18 190 -8 101 -63 565 -73 619 -1 6 3 10 8 10 115 -16 144
-15 164 5 17 17 21 34 21 80 0 53 -28 167 -48 198 -13 20 -102 33 -342 48
-313 19 -613 20 -628 2z m728 -108 c74 -5 142 -12 151 -15 21 -6 39 -47 39
-87 l0 -32 -105 3 c-122 4 -126 1 -105 -82 21 -87 30 -139 36 -201 2 -33 9
-85 14 -115 19 -115 42 -335 55 -545 7 -104 15 -115 95 -136 27 -7 50 -18 49
-23 0 -6 -22 -28 -49 -48 -53 -41 -85 -81 -76 -96 3 -5 57 -29 119 -53 l114
-43 -46 -21 c-74 -35 -158 -92 -163 -112 -5 -19 52 -236 65 -249 4 -4 7 -20 7
-36 0 -16 5 -38 11 -50 6 -11 8 -22 5 -25 -3 -3 -10 7 -16 23 -14 37 -28 17
-24 -34 2 -29 0 -33 -7 -19 -6 9 -7 22 -4 28 10 16 -16 40 -37 34 -14 -5 -19
0 -24 24 -4 18 -11 34 -15 37 -9 5 -39 68 -44 90 -2 6 -10 27 -18 45 -8 19
-22 55 -31 81 -32 89 -66 90 -113 3 -18 -33 -33 -70 -33 -82 0 -12 -4 -25 -10
-28 -5 -3 -10 -15 -10 -25 0 -10 -14 -60 -31 -111 -17 -50 -31 -99 -32 -110
-2 -24 -27 -4 -27 21 0 13 -6 17 -20 13 -24 -6 -28 24 -5 34 14 5 14 8 -1 24
-11 12 -14 27 -10 43 3 14 9 71 11 127 3 56 8 106 12 112 3 6 12 47 19 91 7
45 16 96 19 114 11 55 -4 63 -114 60 -53 -1 -126 -1 -163 0 l-68 2 3 30 c2 17
6 32 8 34 2 2 36 7 74 10 155 14 202 23 207 39 9 24 -2 258 -12 277 -13 24
-51 25 -165 5 -127 -23 -125 -23 -125 34 l0 50 78 17 c93 20 160 48 168 68 8
21 -16 266 -28 289 -7 14 -18 17 -51 13 -164 -19 -184 -19 -191 -1 -3 10 -4
33 0 51 6 30 11 34 63 49 133 36 171 54 171 83 0 32 -41 197 -54 214 -9 13
-34 18 -110 21 -54 3 -100 7 -102 10 -3 2 -2 23 2 45 l6 40 252 1 c138 0 312
-4 386 -10z m156 -1966 c-3 -8 -6 -19 -6 -24 0 -5 -3 -9 -7 -9 -5 0 -8 13 -9
29 -1 21 3 28 13 24 8 -3 12 -12 9 -20z m-440 -52 c-12 -19 -24 -12 -19 10 4
13 9 17 15 11 6 -6 7 -15 4 -21z m511 7 c-3 -8 -6 -5 -6 6 -1 11 2 17 5 13 3
-3 4 -12 1 -19z m-55 -20 c-12 -12 -35 -1 -27 12 3 5 13 6 21 3 10 -4 12 -9 6
-15z m38 18 c0 -3 -4 -8 -10 -11 -5 -3 -10 -1 -10 4 0 6 5 11 10 11 6 0 10 -2
10 -4z m-460 -54 c-7 -3 -15 -1 -19 4 -3 5 -12 9 -18 10 -34 3 -36 5 -13 18
22 12 27 11 43 -8 13 -14 15 -22 7 -24z"/>
<path d="M7008 4363 c6 -2 18 -2 25 0 6 3 1 5 -13 5 -14 0 -19 -2 -12 -5z"/>
<path d="M7260 3783 c0 -4 5 -15 10 -23 8 -13 10 -13 10 2 0 9 -4 20 -10 23
-5 3 -10 3 -10 -2z"/>
<path d="M1948 5779 c-28 -16 -21 -42 26 -107 52 -71 60 -76 85 -63 38 21 31
84 -16 138 -31 36 -69 48 -95 32z"/>
<path d="M9660 5685 c-16 -20 -3 -229 16 -267 15 -28 37 -35 63 -19 11 7 13
32 8 131 -5 108 -9 126 -28 146 -26 28 -42 30 -59 9z"/>
<path d="M1267 5630 c-31 -33 -69 -81 -84 -107 -24 -42 -26 -54 -24 -139 l2
-94 -47 -61 c-41 -53 -46 -65 -38 -88 7 -19 17 -27 40 -29 24 -2 35 4 60 35
79 100 79 100 79 203 l0 95 49 64 c26 35 61 75 78 89 23 19 28 32 26 56 -3 29
-6 31 -44 34 -39 3 -44 0 -97 -58z"/>
<path d="M620 5654 c-47 -20 -87 -60 -100 -100 -9 -26 -8 -47 5 -95 8 -34 13
-65 10 -68 -4 -3 -67 -55 -142 -116 -75 -60 -141 -118 -147 -127 -7 -12 -6
-31 6 -65 38 -113 146 -369 204 -484 53 -107 61 -75 -62 -279 -41 -69 -87
-161 -101 -205 -26 -75 -27 -91 -27 -250 1 -192 13 -266 65 -391 28 -68 46
-92 124 -171 l91 -93 -36 -24 c-20 -13 -83 -68 -140 -123 l-103 -99 18 -34
c34 -66 204 -216 330 -292 116 -69 219 -86 302 -48 48 21 76 60 99 138 30 100
-5 171 -118 240 -21 13 -38 27 -38 31 0 4 15 18 33 31 137 99 247 195 247 215
0 28 -44 86 -118 152 l-57 53 35 0 c19 1 82 5 140 10 70 5 109 5 118 -2 18
-15 15 -129 -9 -339 -22 -190 -20 -256 9 -282 22 -20 105 -43 207 -58 81 -11
196 -7 291 12 104 20 201 112 196 187 -3 43 -37 107 -69 127 -27 18 -135 45
-183 45 -66 1 -65 -4 -15 241 25 123 51 248 59 277 8 30 12 60 10 67 -3 8 -66
44 -140 81 -74 36 -134 71 -134 76 0 5 11 28 24 51 13 23 36 80 51 127 15 47
31 89 35 93 4 5 34 4 66 -1 33 -6 107 -16 167 -23 118 -13 116 -12 93 -81 -54
-163 -96 -310 -96 -335 0 -37 28 -64 102 -98 169 -77 374 -65 439 26 28 40 36
126 16 166 -20 37 -70 81 -103 89 -18 5 -23 11 -18 23 3 9 24 81 45 161 22 80
46 165 54 189 22 65 20 99 -7 111 -39 17 -419 120 -518 141 -52 11 -124 28
-160 39 l-65 19 0 73 c0 64 -4 82 -35 142 -37 72 -100 139 -153 161 -104 43
-298 57 -395 28 -32 -9 -60 -16 -64 -15 -5 1 -8 -2 -8 -6 0 -5 -12 -14 -26
-21 -31 -14 -33 -13 -116 68 -32 31 -58 61 -58 68 0 7 13 19 28 27 33 17 244
235 280 288 l25 38 -19 43 c-23 51 -64 99 -109 127 -86 53 -261 76 -335 44z
m81 -96 c0 -10 2 -10 6 -1 8 22 126 -13 180 -55 50 -37 50 -55 5 -115 -56 -73
-92 -114 -92 -103 0 6 -13 -8 -29 -30 -30 -40 -82 -86 -163 -144 -27 -18 -48
-37 -48 -41 0 -4 35 -38 77 -76 42 -37 96 -86 120 -108 l43 -40 -20 -40 c-58
-109 32 -337 167 -423 62 -40 105 -42 121 -7 15 32 -4 73 -45 100 -67 43 -121
138 -129 226 -5 49 -3 59 26 101 65 97 145 122 300 94 51 -9 109 -25 130 -36
46 -23 103 -87 96 -107 -3 -8 -2 -11 4 -8 5 3 15 -13 21 -36 18 -58 0 -135
-51 -220 -46 -77 -57 -117 -41 -147 34 -64 121 -13 172 101 16 35 4 37 342
-48 302 -75 328 -84 320 -117 -23 -102 -66 -246 -83 -279 -5 -9 -14 -45 -20
-80 -7 -35 -17 -72 -22 -83 -5 -10 -5 -16 0 -13 9 7 88 -15 121 -33 26 -13 29
-80 5 -104 -31 -31 -154 -10 -230 39 -22 14 -22 14 -4 77 10 35 41 132 69 217
28 85 51 160 51 167 0 21 -30 31 -115 37 -44 4 -102 9 -129 13 -36 5 -47 4
-42 -4 4 -7 -3 -6 -21 2 -39 20 -153 46 -229 53 -58 5 -64 4 -64 -13 0 -10 -9
-32 -20 -49 -23 -34 -26 -65 -7 -84 10 -11 9 -13 -5 -8 -19 7 -57 -34 -59 -62
-1 -17 -47 -103 -92 -171 -16 -23 -26 -48 -23 -55 2 -7 50 -37 106 -66 90 -47
100 -55 84 -66 -10 -7 -13 -13 -8 -13 6 0 15 5 22 12 9 9 21 7 51 -7 33 -14
40 -22 36 -39 -2 -12 -9 -56 -15 -100 -5 -43 -13 -82 -16 -87 -3 -5 -8 -22
-10 -37 -3 -15 -14 -72 -25 -127 -10 -55 -19 -119 -19 -142 0 -27 -5 -43 -12
-44 -10 0 -10 -2 0 -6 6 -2 12 -16 12 -29 0 -13 3 -24 8 -24 56 -1 196 -23
227 -35 37 -14 37 -15 8 -11 -31 5 -32 5 -26 -29 3 -21 1 -35 -4 -35 -6 0 -10
11 -10 25 0 32 -11 44 -23 26 -4 -8 -15 -11 -25 -8 -9 4 -13 11 -10 17 3 6 0
7 -9 4 -25 -10 0 -44 32 -44 23 -1 24 -2 10 -11 -12 -7 -24 -6 -37 1 -34 18
-41 11 -14 -16 16 -16 33 -24 44 -21 11 3 21 1 24 -4 3 -4 12 -6 20 -2 8 3 15
1 15 -5 0 -26 -171 -30 -288 -6 -42 9 -78 17 -79 18 -2 1 4 43 12 92 14 87 30
285 29 354 -2 101 -7 157 -16 173 -9 17 -21 19 -124 15 -72 -2 -114 1 -114 7
0 5 -4 4 -8 -3 -6 -8 -59 -14 -183 -18 -182 -6 -233 -15 -243 -41 -12 -29 4
-51 67 -92 34 -22 93 -72 131 -111 66 -67 68 -71 50 -85 -10 -8 -26 -12 -34
-9 -8 3 -11 2 -7 -2 9 -9 -32 -54 -48 -54 -7 0 -20 -9 -30 -20 -10 -12 -25
-18 -32 -16 -7 3 -15 0 -19 -6 -4 -7 -3 -8 4 -4 7 4 12 3 12 -2 0 -6 -7 -12
-15 -16 -14 -5 -19 5 -16 29 1 6 -8 -1 -19 -14 -11 -13 -24 -21 -27 -17 -4 4
-1 11 7 16 8 6 11 10 5 10 -5 0 -3 5 5 10 10 6 11 10 3 10 -7 0 -13 7 -13 17
0 9 -3 13 -7 10 -3 -4 -12 -2 -20 5 -11 8 -12 7 -7 -6 3 -9 10 -16 15 -16 11
0 11 -31 0 -49 -7 -11 -12 -11 -32 0 -33 18 -76 19 -91 2 -9 -11 -9 -16 3 -24
22 -14 32 -11 25 7 -5 14 -4 15 8 5 8 -7 25 -12 38 -10 13 1 31 -1 40 -5 9 -4
27 -2 40 4 13 6 -4 -14 -37 -44 -72 -66 -71 -71 36 -134 79 -46 135 -95 144
-123 3 -10 -1 -34 -9 -53 -17 -41 -33 -44 -111 -21 -87 27 -229 136 -304 233
l-34 44 34 27 c18 14 42 36 53 48 11 13 25 23 32 23 7 0 17 6 21 13 16 26 101
78 106 64 4 -8 6 -7 6 4 1 8 11 25 22 38 l21 23 -109 106 c-61 59 -122 123
-136 142 -78 106 -117 395 -76 567 28 121 45 155 204 400 51 79 51 87 10 153
-26 41 -119 234 -165 340 -18 41 -41 94 -51 117 -11 23 -19 50 -19 60 0 18
154 148 263 222 27 18 53 44 59 57 10 22 7 28 -30 63 -24 22 -42 47 -42 59 0
36 59 83 61 50z m1154 -1356 c-3 -3 -11 0 -18 7 -9 10 -8 11 6 5 10 -3 15 -9
12 -12z m-45 -1218 c0 -19 -14 -24 -30 -12 -12 8 -12 9 3 4 11 -3 17 0 17 9 0
11 -5 12 -26 5 -34 -13 -37 -13 -22 4 7 7 19 11 27 8 10 -4 12 -1 6 9 -8 12
-6 12 8 0 9 -7 17 -19 17 -27z m-25 -44 c-3 -5 -11 -10 -16 -10 -6 0 -7 5 -4
10 3 6 11 10 16 10 6 0 7 -4 4 -10z"/>
<path d="M840 5506 c0 -2 7 -7 16 -10 8 -3 12 -2 9 4 -6 10 -25 14 -25 6z"/>
<path d="M1355 4830 c-3 -5 -1 -10 4 -10 6 0 11 5 11 10 0 6 -2 10 -4 10 -3 0
-8 -4 -11 -10z"/>
<path d="M1380 4771 c0 -6 4 -13 10 -16 6 -3 7 1 4 9 -7 18 -14 21 -14 7z"/>
<path d="M1356 4094 c-11 -28 -6 -39 9 -20 8 11 15 23 15 28 0 14 -18 9 -24
-8z"/>
<path d="M1130 3610 c8 -5 20 -10 25 -10 6 0 3 5 -5 10 -8 5 -19 10 -25 10 -5
0 -3 -5 5 -10z"/>
<path d="M717 3589 c7 -7 15 -10 18 -7 3 3 -2 9 -12 12 -14 6 -15 5 -6 -5z"/>
<path d="M1168 3583 c7 -3 16 -2 19 1 4 3 -2 6 -13 5 -11 0 -14 -3 -6 -6z"/>
<path d="M683 3333 c9 -11 17 -25 17 -31 0 -6 5 -14 10 -17 6 -4 5 8 -3 26 -7
18 -19 35 -27 37 -11 4 -11 0 3 -15z"/>
<path d="M884 3302 c-1 -15 1 -21 3 -14 3 6 9 9 15 6 6 -4 5 2 -1 15 -15 27
-16 27 -17 -7z"/>
<path d="M745 3290 c-3 -5 -2 -10 4 -10 5 0 13 5 16 10 3 6 2 10 -4 10 -5 0
-13 -4 -16 -10z"/>
<path d="M780 3250 c0 -5 5 -10 10 -10 6 0 10 5 10 10 0 6 -4 10 -10 10 -5 0
-10 -4 -10 -10z"/>
<path d="M915 3240 c3 -5 8 -10 11 -10 2 0 4 5 4 10 0 6 -5 10 -11 10 -5 0 -7
-4 -4 -10z"/>
<path d="M1441 3226 c-1 -13 -6 -16 -18 -12 -15 5 -14 3 2 -9 11 -9 30 -25 43
-35 12 -11 22 -16 22 -11 0 6 -9 16 -19 23 -10 8 -21 25 -24 38 -3 16 -5 19
-6 6z"/>
<path d="M796 3197 c3 -10 9 -15 12 -12 3 3 0 11 -7 18 -10 9 -11 8 -5 -6z"/>
<path d="M1423 3151 c-9 -24 -8 -33 3 -42 11 -9 14 -9 14 0 0 7 4 10 9 7 5 -3
12 1 15 10 9 25 7 34 -8 34 -8 0 -16 5 -18 10 -2 6 -8 -3 -15 -19z m27 -21
c-20 -13 -33 -13 -25 0 3 6 14 10 23 10 15 0 15 -2 2 -10z"/>
<path d="M785 3160 c3 -5 8 -10 11 -10 2 0 4 5 4 10 0 6 -5 10 -11 10 -5 0 -7
-4 -4 -10z"/>
<path d="M1478 2953 c7 -3 16 -2 19 1 4 3 -2 6 -13 5 -11 0 -14 -3 -6 -6z"/>
<path d="M1511 2944 c0 -11 3 -14 6 -6 3 7 2 16 -1 19 -3 4 -6 -2 -5 -13z"/>
<path d="M1545 2950 c-16 -5 -13 -8 14 -13 44 -9 51 -9 51 3 0 5 -7 7 -16 3
-9 -3 -19 -1 -23 4 -3 6 -15 7 -26 3z"/>
<path d="M1533 2913 c9 -2 25 -2 35 0 9 3 1 5 -18 5 -19 0 -27 -2 -17 -5z"/>
<path d="M7750 5413 c-25 -9 -51 -17 -58 -19 -35 -10 -20 -69 34 -127 30 -32
30 -40 1 -56 -56 -30 -56 -85 -1 -150 l34 -39 -17 -38 c-13 -28 -17 -66 -17
-135 0 -112 15 -159 49 -159 46 0 54 21 48 122 -4 73 -2 101 11 132 28 67 19
117 -31 163 -30 29 -29 39 6 57 51 27 55 79 10 130 -34 40 -32 52 13 64 37 9
58 36 42 52 -19 19 -77 20 -124 3z"/>
<path d="M9677 5252 c-12 -13 -17 -37 -17 -78 0 -66 26 -402 35 -449 3 -16 10
-86 15 -155 5 -69 11 -134 12 -145 3 -17 -2 -20 -27 -18 -68 4 -116 -8 -127
-32 -12 -27 -5 -40 92 -185 32 -47 70 -110 85 -140 14 -30 30 -62 34 -70 5 -8
21 -15 37 -15 22 0 30 5 32 23 4 29 -35 115 -103 223 -30 47 -55 89 -55 92 0
3 28 6 61 6 34 0 66 4 72 10 7 7 5 53 -6 138 -9 70 -19 160 -22 198 -3 39 -12
138 -20 220 -8 83 -18 193 -21 245 -5 70 -12 102 -26 123 -23 32 -29 33 -51 9z"/>
<path d="M1331 5153 c-34 -41 -39 -74 -15 -93 21 -18 61 -3 87 32 19 26 19 28
3 62 -9 20 -23 36 -31 36 -7 0 -27 -17 -44 -37z"/>
<path d="M2155 5062 c-143 -37 -311 -94 -351 -120 -23 -15 -56 -34 -72 -44
-43 -23 -68 -64 -52 -83 22 -26 66 -17 165 35 86 45 125 59 125 45 0 -2 -12
-29 -27 -60 -30 -61 -35 -64 -163 -90 -41 -9 -82 -23 -92 -32 -25 -22 -23 -60
3 -68 54 -17 282 40 293 73 3 9 29 62 58 117 l53 99 60 18 c105 31 105 31 105
-61 l0 -78 -48 -30 c-49 -30 -102 -105 -115 -163 -8 -34 23 -84 65 -106 46
-24 173 -31 218 -11 19 8 52 22 72 31 l37 16 21 -30 22 -30 -50 -45 c-65 -58
-78 -89 -58 -137 19 -44 60 -61 126 -52 53 7 98 -11 125 -48 l15 -23 -77 -12
c-119 -18 -173 -72 -173 -172 0 -66 24 -112 74 -142 l33 -19 -24 -62 c-34 -84
-40 -131 -19 -163 33 -51 66 -22 91 80 10 39 36 104 58 146 51 95 46 109 -44
109 -64 0 -76 13 -64 70 5 23 14 32 43 40 58 16 72 12 90 -21 37 -67 73 -110
90 -107 9 2 25 18 34 37 17 33 16 35 -7 76 -14 23 -25 46 -25 51 0 11 122 94
138 94 15 0 40 33 47 62 5 20 2 29 -13 37 -31 17 -43 14 -105 -23 l-57 -34
-32 44 c-36 50 -94 82 -155 86 -24 1 -43 4 -43 6 0 2 23 25 50 51 65 61 65 81
-1 160 -73 86 -95 91 -193 45 -69 -33 -83 -36 -133 -31 -30 3 -58 9 -61 12
-14 14 36 81 87 116 30 21 58 43 62 51 5 7 9 72 9 145 0 125 -1 133 -22 147
-28 20 -113 19 -193 -2z"/>
<path d="M6835 5051 c-70 -10 -105 -29 -105 -57 0 -30 27 -37 126 -32 84 4
108 20 102 68 -3 21 -9 25 -38 26 -19 1 -57 -2 -85 -5z"/>
<path d="M1625 5019 c-47 -42 -60 -66 -44 -85 20 -24 72 -17 102 14 27 28 27
29 12 65 -8 20 -20 37 -25 37 -5 0 -25 -14 -45 -31z"/>
<path d="M154 4982 c-19 -13 -23 -52 -9 -95 8 -23 25 -80 39 -127 15 -52 43
-113 70 -154 l44 -69 -34 -47 c-36 -50 -42 -85 -21 -115 23 -30 61 -12 102 49
20 30 42 60 50 66 24 20 17 62 -17 116 -70 109 -87 145 -107 220 -29 109 -49
151 -75 158 -27 7 -29 7 -42 -2z"/>
<path d="M8150 4539 c-71 -33 -100 -61 -100 -99 0 -19 13 -34 54 -63 l55 -37
-25 -43 c-13 -23 -40 -84 -60 -134 -20 -51 -40 -93 -45 -93 -4 0 -19 5 -33 11
-32 15 -92 3 -118 -23 -18 -18 -20 -28 -14 -76 4 -31 22 -101 41 -156 l35
-100 -16 -51 c-9 -27 -32 -80 -51 -117 -29 -60 -37 -68 -61 -68 -16 0 -53 -12
-83 -27 -47 -24 -54 -32 -57 -61 -5 -48 30 -58 102 -31 66 26 83 22 163 -31
72 -49 116 -57 121 -21 6 43 -7 66 -63 105 -31 21 -54 43 -51 50 2 6 25 58 50
114 52 118 53 103 -10 284 -21 59 -35 110 -32 114 3 3 24 -4 47 -15 46 -24 84
-27 99 -8 6 6 19 39 30 72 33 97 80 207 95 222 11 11 19 12 40 2 30 -13 57 -6
57 15 0 8 16 47 35 87 38 80 43 110 20 129 -24 20 -54 1 -80 -51 -14 -27 -28
-49 -31 -49 -3 0 -21 11 -40 24 l-35 23 36 21 c37 23 46 54 25 93 -14 25 -22
24 -100 -12z"/>
<path d="M8759 4450 c-103 -21 -181 -57 -305 -139 -163 -107 -242 -216 -291
-402 -27 -98 -28 -115 -28 -314 1 -198 2 -215 29 -308 51 -183 108 -280 238
-410 69 -70 92 -85 202 -138 160 -76 257 -94 481 -86 167 6 226 20 320 72 133
75 210 158 287 310 17 33 32 62 34 64 2 2 17 -8 33 -22 30 -25 101 -44 121
-32 38 23 -36 105 -95 105 -19 0 -35 3 -34 8 0 4 8 38 18 76 18 68 18 68 37
49 26 -28 58 -43 88 -43 34 0 40 14 21 49 -20 40 -52 61 -92 61 -22 0 -31 4
-28 13 10 27 13 236 4 297 -19 132 -51 235 -99 327 -57 109 -88 151 -195 259
-63 63 -97 89 -157 117 -216 102 -391 128 -589 87z m291 -134 c128 -23 217
-55 278 -100 62 -46 166 -155 214 -224 96 -139 151 -388 126 -579 -11 -86 -21
-119 -68 -238 -5 -11 -11 -31 -14 -45 -10 -44 -115 -179 -174 -225 -108 -85
-225 -125 -370 -126 -110 -1 -203 20 -367 84 -128 49 -132 52 -210 131 -106
106 -137 153 -170 256 -41 132 -56 232 -50 335 8 111 31 270 47 316 14 43 75
156 100 188 29 38 167 134 233 163 171 74 279 90 425 64z"/>
<path d="M8767 4223 c-4 -3 -7 -100 -7 -215 0 -192 -5 -230 -25 -197 -15 23
-55 29 -91 14 -34 -14 -64 -61 -64 -102 0 -13 -38 -37 -133 -86 -152 -77 -172
-91 -164 -111 3 -8 34 -28 69 -44 35 -17 106 -50 158 -75 l95 -44 12 -53 c19
-81 35 -93 108 -85 33 3 64 7 70 8 6 1 12 -58 16 -161 3 -95 10 -167 16 -173
16 -16 76 19 173 104 81 70 87 73 119 65 51 -14 61 -5 61 52 0 47 11 63 26 39
3 -6 19 -9 34 -5 18 3 60 -5 112 -23 106 -36 148 -44 148 -29 0 6 -25 52 -56
102 -84 135 -106 166 -142 205 -28 29 -30 36 -17 43 16 10 21 68 5 68 -5 0
-10 8 -10 19 0 11 38 49 98 98 115 95 174 153 169 167 -5 15 -50 24 -156 31
-53 4 -113 14 -134 22 -32 14 -44 15 -71 5 -48 -17 -75 -4 -125 62 -74 99
-263 306 -279 306 -5 0 -12 -3 -15 -7z m103 -117 c94 -101 134 -148 184 -213
l47 -63 -34 0 c-39 0 -52 12 -62 57 -7 36 -47 73 -76 73 -11 0 -36 -15 -55
-33 -30 -28 -37 -42 -41 -83 -3 -33 0 -63 11 -88 9 -22 15 -41 12 -43 -2 -2
-22 -1 -44 3 -42 7 -66 39 -36 51 11 4 12 37 7 193 -3 103 -3 195 0 204 9 22
18 16 87 -58z m97 -198 c13 -12 23 -33 23 -47 0 -40 14 -53 64 -58 41 -5 46
-8 46 -30 0 -23 -3 -25 -27 -19 -67 17 -82 17 -111 2 -49 -26 -79 -21 -98 16
-23 44 -13 106 21 135 33 29 52 29 82 1z m274 -75 c12 -15 12 -16 -3 -10 -23
8 -47 -21 -27 -34 20 -12 27 -11 37 7 8 14 10 14 15 1 9 -24 -19 -42 -47 -29
-28 12 -44 61 -24 73 20 13 34 11 49 -8z m-67 -45 c14 -27 14 -32 -1 -55 -14
-21 -14 -28 -4 -45 10 -17 10 -22 0 -29 -11 -6 -11 -12 1 -33 11 -22 11 -30 0
-52 -11 -19 -11 -29 -2 -44 9 -14 8 -19 -4 -24 -22 -8 0 -44 34 -57 24 -9 25
-11 10 -20 -21 -12 -25 -81 -5 -97 29 -23 58 -24 82 -2 13 12 28 19 34 16 6
-4 29 -37 51 -74 21 -37 49 -82 61 -99 26 -40 18 -41 -69 -12 -60 20 -62 22
-62 55 0 30 -3 34 -25 34 -18 0 -25 5 -25 19 0 26 -15 34 -40 21 -14 -8 -20
-21 -20 -48 l0 -37 -33 39 c-33 39 -34 39 -89 33 -50 -5 -57 -3 -61 14 -5 17
1 19 56 19 85 0 93 7 81 67 -8 45 -11 48 -42 51 -41 4 -37 23 7 36 32 9 33 11
26 50 -4 23 -8 68 -10 102 -1 33 -7 70 -14 81 -15 29 -14 33 5 33 14 0 16 8
10 49 -6 46 -5 49 14 44 11 -3 26 -19 34 -35z m-470 10 c26 -11 29 -18 41 -75
5 -27 11 -33 33 -33 43 0 72 -11 72 -26 0 -23 -38 -31 -139 -30 -84 1 -95 3
-102 21 -21 54 -2 120 41 142 30 15 24 15 54 1z m749 -4 c20 -3 37 -9 37 -13
0 -13 -152 -142 -209 -179 -52 -33 -55 -34 -68 -16 -17 23 -5 35 44 43 34 6
38 9 38 36 0 24 -5 31 -25 33 -14 2 -33 11 -44 20 -18 16 -17 17 15 22 30 4
34 9 37 38 l3 33 67 -6 c37 -3 84 -8 105 -11z m-375 -90 c25 -29 31 -99 10
-127 -7 -9 -32 -19 -55 -23 -38 -6 -45 -3 -73 24 -65 65 -21 172 65 157 17 -3
40 -16 53 -31z m175 -24 c28 0 19 -15 -16 -28 -46 -17 -53 -15 -33 7 17 19 17
20 -3 31 -12 6 -19 16 -15 21 4 6 15 2 28 -10 12 -12 30 -21 39 -21z m-347
-26 c0 -29 8 -61 17 -74 15 -22 15 -24 -6 -35 -18 -9 -21 -18 -19 -45 5 -45
18 -60 53 -60 15 0 31 -4 34 -10 4 -6 -6 -10 -22 -10 -46 0 -67 -21 -58 -59 4
-19 15 -36 28 -41 14 -5 16 -9 7 -9 -8 -1 -21 -10 -28 -21 -18 -29 -27 -25
-30 13 -5 63 -9 67 -58 60 -37 -5 -44 -3 -44 11 0 9 8 16 20 16 31 0 70 44 70
79 0 39 -16 81 -42 108 l-21 23 31 6 c31 6 32 8 32 56 0 42 3 49 17 46 14 -2
18 -14 19 -54z m-307 -26 c7 -18 12 -49 11 -70 -1 -20 6 -50 15 -68 14 -27 14
-36 3 -61 -7 -16 -19 -29 -26 -29 -17 0 -252 109 -270 126 -11 9 10 24 105 72
65 34 125 61 133 62 9 0 22 -15 29 -32z m172 -33 c56 -29 91 -129 57 -163 -20
-20 -58 -14 -81 13 -12 14 -35 27 -52 29 -16 2 -33 4 -36 5 -9 2 -29 50 -29
71 0 51 80 76 141 45z m444 -45 c4 -6 15 -8 26 -5 17 6 19 3 13 -19 -5 -20 -2
-26 11 -26 9 0 15 -6 13 -12 -6 -16 -77 -23 -91 -9 -8 8 -5 11 11 11 23 0 30
14 12 25 -5 3 -15 15 -20 26 -8 15 -7 19 4 19 8 0 18 -5 21 -10z m-95 -35 c0
-8 -16 -21 -35 -29 -22 -10 -37 -24 -41 -40 -8 -34 2 -46 37 -46 22 0 32 -6
38 -22 5 -13 6 -27 3 -32 -6 -11 -172 0 -185 13 -16 16 3 31 39 31 39 0 49 15
35 53 -8 20 -18 26 -48 29 -30 2 -39 7 -41 25 -3 20 1 22 60 26 140 7 138 8
138 -8z m-369 -141 c16 -49 16 -49 60 -49 40 0 44 -2 44 -25 0 -24 -5 -26 -87
-39 -102 -16 -109 -13 -128 53 -15 54 -1 108 33 124 33 15 59 -7 78 -64z m521
20 c15 -31 0 -61 -28 -56 -30 6 -43 24 -14 20 19 -2 25 1 25 17 0 15 -6 19
-22 18 -22 -3 -30 7 -16 20 15 15 44 5 55 -19z m-285 -80 c-3 -3 -12 -4 -19
-1 -8 3 -5 6 6 6 11 1 17 -2 13 -5z m-22 -74 c-8 -46 9 -54 40 -20 21 23 76
41 104 33 40 -10 74 -169 35 -161 -12 2 -17 16 -18 51 -3 84 -54 101 -95 32
-24 -41 -56 -46 -89 -15 -35 33 -25 120 14 120 13 0 14 -8 9 -40z m265 11 c0
-12 11 -23 28 -29 26 -10 26 -10 4 -11 -15 -1 -26 -9 -29 -21 -3 -11 -9 -17
-14 -14 -12 7 -11 94 1 94 6 0 10 -9 10 -19z m-336 -41 c3 -53 46 -100 92
-100 26 0 39 8 64 40 33 42 50 44 50 6 0 -40 -237 -245 -253 -219 -5 9 -10
165 -8 251 1 45 4 54 24 61 28 11 29 10 31 -39z"/>
<path d="M8891 3848 c-11 -29 4 -58 30 -58 25 0 35 25 21 56 -14 30 -40 31
-51 2z"/>
<path d="M8652 3738 c-7 -7 -12 -25 -12 -40 0 -25 4 -28 30 -28 38 0 48 22 26
55 -18 28 -27 30 -44 13z"/>
<path d="M8987 3673 c-26 -26 14 -82 49 -69 17 7 19 47 2 64 -13 13 -41 16
-51 5z"/>
<path d="M8712 3551 c-8 -4 -12 -19 -10 -32 2 -19 9 -24 33 -24 33 0 45 25 25
50 -14 17 -29 19 -48 6z"/>
<path d="M8674 3366 c-10 -26 1 -51 24 -54 30 -4 39 23 17 48 -21 24 -34 25
-41 6z"/>
<path d="M9026 4202 c-4 -7 -9 -108 -7 -159 1 -13 7 -23 16 -23 12 0 15 17 15
95 0 84 -8 113 -24 87z"/>
<path d="M9177 4031 c-38 -71 -54 -112 -47 -116 6 -4 13 -5 15 -4 7 7 115 216
115 223 0 3 -6 6 -13 6 -7 0 -39 -49 -70 -109z"/>
<path d="M8630 4100 c0 -20 60 -140 70 -140 16 0 12 16 -19 85 -26 58 -51 84
-51 55z"/>
<path d="M9092 4043 c-6 -20 -9 -40 -6 -45 11 -17 23 -6 33 30 14 48 14 52 -2
52 -8 0 -19 -16 -25 -37z"/>
<path d="M9350 3975 c-56 -58 -70 -79 -61 -88 9 -9 29 7 87 65 66 66 84 98 55
98 -4 0 -41 -34 -81 -75z"/>
<path d="M8486 4032 c-7 -11 120 -166 139 -170 8 -2 15 -1 15 3 0 9 -134 175
-142 175 -4 0 -9 -4 -12 -8z"/>
<path d="M9236 3974 c-30 -44 -32 -54 -12 -54 21 0 61 69 48 82 -7 7 -18 -2
-36 -28z"/>
<path d="M8620 3986 c0 -2 7 -20 15 -40 15 -35 35 -49 35 -23 0 23 -25 67 -37
67 -7 0 -13 -2 -13 -4z"/>
<path d="M9509 3928 c-6 -18 -7 -78 -1 -78 28 1 44 80 16 80 -8 0 -14 -1 -15
-2z"/>
<path d="M9385 3900 c-10 -11 -15 -23 -12 -27 10 -9 57 18 57 34 0 19 -24 16
-45 -7z"/>
<path d="M8470 3851 c0 -18 71 -54 82 -43 8 8 1 17 -23 31 -36 22 -59 27 -59
12z"/>
<path d="M8350 3775 c0 -9 25 -21 69 -35 80 -24 101 -25 101 -6 0 9 -28 21
-78 35 -93 25 -92 25 -92 6z"/>
<path d="M9483 3647 c-45 -12 -73 -25 -73 -33 0 -16 2 -17 60 -3 98 22 120 30
120 44 0 19 -17 17 -107 -8z"/>
<path d="M9416 3559 c-25 -15 -5 -26 39 -21 21 3 35 10 35 18 0 17 -46 18 -74
3z"/>
<path d="M9344 3489 c-11 -18 12 -26 94 -32 42 -4 101 -10 130 -13 44 -6 52
-4 52 10 0 9 -6 16 -12 16 -7 0 -58 7 -113 15 -122 18 -142 18 -151 4z"/>
<path d="M9402 3403 c3 -18 83 -47 106 -38 25 10 10 24 -42 39 -67 20 -68 20
-64 -1z"/>
<path d="M8407 3363 c-15 -14 -6 -23 22 -23 35 0 61 9 61 21 0 10 -73 12 -83
2z"/>
<path d="M9407 3343 c-14 -13 -5 -22 63 -62 64 -38 90 -44 90 -22 0 8 -131 91
-143 91 -2 0 -7 -3 -10 -7z"/>
<path d="M8428 3293 c-43 -20 -78 -42 -78 -49 0 -8 3 -14 8 -14 21 0 172 76
172 87 0 19 -17 15 -102 -24z"/>
<path d="M8512 3244 c-27 -18 -29 -34 -4 -34 21 0 62 27 62 41 0 14 -33 11
-58 -7z"/>
<path d="M8532 3157 c-63 -64 -72 -77 -49 -77 14 0 137 118 137 131 0 23 -31
4 -88 -54z"/>
<path d="M8649 3133 c-57 -147 -58 -153 -34 -153 8 0 19 17 26 43 6 23 17 53
24 67 7 14 16 35 19 48 11 33 -22 29 -35 -5z"/>
<path d="M8737 3142 c-3 -4 -7 -27 -8 -52 -3 -36 0 -45 14 -48 14 -3 17 5 17
52 0 50 -10 70 -23 48z"/>
<path d="M9305 3079 c-8 -12 40 -89 55 -89 15 0 12 15 -11 60 -21 41 -33 48
-44 29z"/>
<path d="M9210 3059 c0 -18 51 -163 61 -173 5 -5 12 -7 16 -3 10 11 -50 187
-64 187 -7 0 -13 -5 -13 -11z"/>
<path d="M9140 3011 c0 -18 22 -71 30 -71 15 0 17 14 8 48 -5 17 -15 32 -23
32 -8 0 -15 -4 -15 -9z"/>
<path d="M9068 2993 c-3 -10 -6 -44 -7 -75 -2 -47 1 -58 13 -58 13 0 16 12 16
53 0 28 3 62 6 75 5 16 2 22 -9 22 -8 0 -17 -8 -19 -17z"/>
<path d="M160 4254 c-14 -37 -12 -117 4 -139 12 -16 17 -17 45 -6 34 14 51 56
51 122 0 40 -11 49 -61 49 -22 0 -32 -6 -39 -26z"/>
<path d="M3037 4135 c-85 -15 -104 -32 -112 -98 -3 -29 -8 -70 -11 -93 l-6
-40 -81 -18 c-132 -30 -135 -34 -87 -109 17 -26 30 -51 30 -55 0 -4 -22 -25
-50 -45 -70 -52 -68 -72 15 -133 36 -26 65 -54 65 -62 0 -7 -15 -48 -33 -90
-29 -66 -60 -152 -73 -200 -3 -10 -20 -12 -68 -8 -52 5 -66 2 -78 -12 -31 -35
-51 -88 -56 -148 l-5 -62 69 -40 c87 -51 491 -212 532 -212 28 0 35 7 67 64
20 36 44 87 54 115 10 28 29 59 42 70 37 28 82 117 75 146 -3 13 -2 25 2 27
20 8 66 125 67 170 1 28 8 55 18 65 20 23 77 176 77 208 0 19 -12 28 -77 55
-43 18 -80 34 -82 36 -2 2 33 59 77 127 45 67 82 133 82 145 0 12 -10 34 -22
48 -36 41 -116 94 -141 94 -14 0 -47 -21 -84 -55 -34 -30 -63 -55 -66 -55 -3
0 -8 35 -12 78 -10 110 -8 109 -128 87z"/>
<path d="M6762 4132 c-27 -27 -37 -100 -23 -169 6 -31 9 -58 7 -60 -2 -2 -36
12 -75 31 -74 38 -110 38 -125 0 -8 -21 9 -116 34 -188 10 -31 17 -56 15 -56
-2 0 -27 12 -56 26 -49 25 -53 26 -85 11 -35 -17 -54 -60 -54 -124 0 -40 -9
-41 -48 -8 -49 41 -92 29 -92 -26 0 -48 112 -129 179 -129 35 0 51 22 51 72 0
18 3 50 6 70 l7 37 41 -24 c52 -30 115 -45 145 -33 22 8 23 13 18 56 -3 26
-17 82 -30 125 -14 42 -21 77 -16 77 5 0 32 -16 60 -35 46 -31 104 -55 136
-55 22 0 26 50 9 109 -30 99 -36 125 -36 163 0 37 1 37 33 32 82 -14 75 -5 79
-107 6 -192 -23 -356 -99 -551 -27 -68 -27 -68 -11 -131 22 -84 56 -153 83
-171 54 -35 191 -8 242 47 51 55 69 168 38 229 -14 27 -14 29 5 35 44 14 90
-30 90 -87 0 -39 20 -98 41 -119 13 -13 33 -19 65 -19 61 0 81 13 94 60 12 45
12 330 1 349 -6 10 -16 9 -45 -3 l-36 -15 0 -104 c0 -107 -7 -167 -20 -167 -4
0 -13 32 -20 72 -10 58 -19 78 -42 100 -55 51 -161 47 -228 -8 -38 -33 -39
-70 -4 -124 28 -42 27 -72 -1 -117 -17 -25 -77 -47 -109 -39 -24 6 -51 53 -61
110 -5 26 -1 51 14 89 28 70 78 249 90 328 11 68 15 349 5 386 -7 26 -39 40
-124 53 -36 6 -79 13 -97 16 -23 5 -36 1 -51 -14z"/>
<path d="M1702 4068 c-5 -7 -20 -44 -32 -81 -25 -73 -21 -110 12 -131 27 -16
55 18 78 94 11 37 20 77 20 88 0 34 -57 56 -78 30z"/>
<path d="M131 3956 c-15 -18 -16 -152 -2 -189 12 -31 36 -35 69 -11 20 14 22
23 22 105 0 87 -1 90 -26 99 -35 14 -49 13 -63 -4z"/>
<path d="M5710 3883 c-212 -24 -214 -25 -201 -163 8 -73 12 -87 35 -107 34
-29 38 -29 226 -47 85 -8 179 -22 208 -31 69 -21 117 -64 130 -116 12 -49 4
-75 -55 -174 -55 -94 -62 -127 -29 -149 14 -9 29 -16 34 -16 5 0 33 37 62 82
68 104 94 191 81 263 -15 77 -25 96 -78 146 -76 72 -155 92 -434 114 -76 6
-77 7 -83 37 -3 16 -4 33 -1 37 5 9 252 35 280 30 14 -3 19 -11 17 -28 -4 -27
33 -71 60 -71 26 0 38 39 38 121 0 47 -4 71 -12 73 -39 12 -169 12 -278 -1z"/>
<path d="M3534 3852 c-6 -4 -13 -15 -17 -25 -10 -27 30 -163 69 -235 19 -34
34 -67 34 -71 0 -5 -15 -32 -34 -60 -44 -65 -54 -122 -31 -179 l17 -42 -40
-68 c-48 -81 -83 -159 -102 -225 -14 -54 -5 -51 -97 -30 -25 6 -63 -28 -63
-57 0 -22 22 -36 95 -62 93 -34 127 -17 144 72 15 73 129 300 150 300 42 0 63
-13 57 -34 -3 -11 -14 -81 -23 -155 -16 -130 -16 -134 2 -147 10 -8 30 -14 44
-14 13 0 73 -12 132 -26 59 -14 120 -24 135 -22 35 4 42 25 43 130 1 77 7 108
20 108 4 0 25 -24 46 -53 40 -56 103 -109 148 -126 25 -10 29 -8 48 22 14 23
18 42 14 65 -3 18 -3 71 1 118 l7 86 96 -95 c97 -95 147 -137 162 -137 5 0 23
16 41 36 53 59 90 92 125 111 l33 17 27 -31 c16 -17 40 -39 54 -47 26 -16 28
-16 59 11 39 33 110 174 110 219 0 20 -10 44 -26 64 -15 17 -24 34 -20 37 3 4
29 1 58 -6 29 -6 84 -14 124 -18 l71 -6 54 96 c30 53 59 97 65 97 6 0 14 -12
17 -28 8 -37 44 -82 67 -82 12 0 22 12 30 35 10 31 8 44 -15 104 -14 37 -37
78 -50 91 -21 20 -29 22 -57 14 -28 -8 -42 -26 -89 -104 -32 -52 -61 -100 -67
-106 -7 -8 -40 -6 -119 8 -116 21 -170 19 -208 -6 -45 -30 -42 -57 14 -130 28
-36 51 -70 51 -76 0 -18 -40 -90 -49 -90 -5 0 -15 16 -21 35 -26 79 -93 63
-233 -58 l-58 -50 -118 117 c-111 109 -120 116 -158 116 -22 0 -45 -6 -51 -12
-5 -7 -13 -66 -17 -130 -4 -65 -11 -118 -15 -118 -4 0 -25 23 -45 51 -45 63
-89 84 -145 69 -50 -13 -58 -29 -72 -138 -6 -48 -12 -88 -13 -89 -1 -2 -35 5
-76 16 -87 22 -88 24 -69 156 l12 83 58 4 c89 6 178 55 224 121 20 29 36 57
36 64 0 21 15 22 65 8 26 -8 61 -15 76 -15 24 0 29 5 35 35 3 19 4 41 1 48 -5
14 -107 47 -145 47 -14 0 -26 11 -38 35 -9 19 -32 48 -50 65 -61 53 -164 37
-271 -42 -29 -21 -58 -48 -64 -60 -29 -55 3 -118 78 -153 31 -15 38 -15 88 0
58 16 71 34 63 86 -3 25 -16 28 -82 18 -47 -7 -40 15 14 45 62 34 105 32 133
-6 20 -26 20 -28 3 -73 -33 -84 -109 -120 -242 -113 -93 5 -131 23 -148 70 -8
22 -2 36 37 92 58 82 61 117 17 181 -36 53 -62 112 -79 180 -7 27 -17 55 -23
62 -11 14 -47 17 -64 5z"/>
<path d="M163 3623 c-25 -5 -25 -2 -23 -126 1 -97 13 -133 64 -199 45 -60 58
-86 50 -99 -3 -6 -34 -29 -68 -51 -34 -21 -63 -48 -66 -60 -10 -40 -1 -489 10
-523 14 -44 32 -49 147 -40 84 6 98 10 125 34 25 22 30 33 24 54 -7 31 -34 36
-124 23 -34 -5 -64 -7 -66 -5 -2 2 -6 94 -9 205 l-7 201 48 34 c58 42 122 103
122 117 0 24 -24 71 -78 151 -56 83 -57 87 -63 169 -5 73 -9 88 -28 103 -13
11 -26 18 -30 18 -3 -1 -16 -4 -28 -6z"/>
<path d="M2356 3559 c-36 -53 -100 -175 -114 -216 -6 -18 -15 -33 -20 -33 -5
0 -23 31 -40 68 -39 89 -69 105 -135 73 -24 -12 -62 -37 -84 -56 -23 -19 -44
-35 -48 -35 -3 0 -5 39 -3 88 l3 87 -32 3 c-24 2 -35 -2 -47 -20 -18 -27 -36
-131 -36 -206 0 -46 4 -58 29 -82 36 -37 50 -33 141 41 110 91 104 90 141 17
39 -79 73 -125 99 -133 36 -11 76 31 116 124 52 122 55 127 64 110 4 -8 11
-32 15 -53 10 -58 45 -126 64 -126 9 0 28 13 43 28 36 37 188 253 188 268 0
14 -43 44 -64 44 -8 0 -39 -31 -68 -70 -29 -38 -57 -68 -63 -66 -5 1 -11 13
-13 27 -8 67 -25 131 -38 144 -9 8 -28 15 -43 15 -22 0 -34 -9 -55 -41z"/>
<path d="M5759 3479 c-86 -20 -253 -110 -330 -177 -41 -37 -51 -41 -96 -40
-37 1 -66 -6 -107 -26 -85 -41 -120 -80 -142 -155 l-19 -63 -135 -107 c-74
-59 -157 -122 -183 -140 l-48 -32 -33 29 c-48 42 -98 57 -191 57 -110 0 -158
-20 -231 -97 l-58 -61 -250 12 -250 13 -26 28 c-37 39 -67 45 -173 30 -93 -12
-193 -44 -242 -76 -17 -11 -53 -18 -108 -21 -191 -10 -311 -66 -337 -157 -25
-90 11 -133 158 -186 34 -12 62 -25 62 -27 0 -3 -9 -18 -21 -34 -29 -41 -37
-135 -16 -176 21 -41 71 -81 132 -108 l50 -22 -3 -74 c-3 -64 0 -79 20 -108
31 -46 94 -77 203 -99 l90 -18 0 -54 c0 -60 19 -97 76 -144 52 -44 142 -56
236 -30 17 5 22 1 28 -25 8 -37 53 -77 103 -91 50 -13 211 -13 253 1 19 7 43
20 55 30 27 25 36 24 65 -7 13 -14 61 -53 107 -86 45 -33 82 -62 82 -65 0 -2
-10 -14 -21 -26 -30 -31 -71 -122 -72 -160 -1 -48 45 -114 87 -126 104 -28
327 103 462 270 70 87 78 103 63 132 -6 12 -50 78 -96 146 -46 68 -83 124 -81
126 6 4 260 85 269 85 5 0 9 -8 9 -19 0 -17 -31 -136 -61 -232 -15 -49 -1 -73
64 -105 194 -99 385 -120 479 -53 40 29 71 94 64 133 -12 59 -53 92 -178 145
l-47 20 23 53 c13 29 38 97 57 152 19 55 40 101 49 104 8 3 32 17 53 30 20 14
39 23 41 21 3 -2 0 -23 -7 -46 -12 -46 0 -73 33 -73 22 0 34 15 51 62 15 45 1
88 -30 88 -18 0 -17 4 10 53 16 28 29 62 29 74 0 16 10 25 37 34 59 19 129 97
149 164 20 70 15 119 -20 188 l-25 51 44 41 c49 45 84 113 85 163 0 42 -24
100 -56 133 l-25 26 26 48 c14 26 25 60 25 75 0 32 -50 113 -84 135 l-26 17
40 46 c22 25 55 74 72 110 30 61 31 66 19 110 -20 76 -57 103 -156 115 -22 3
-56 1 -76 -4z m92 -100 c50 -50 -3 -142 -164 -290 -62 -56 -120 -115 -130
-129 -17 -26 -17 -28 2 -51 l19 -24 47 23 c25 12 68 43 94 67 27 25 53 45 59
45 21 0 72 -52 72 -74 0 -38 -48 -98 -140 -176 -109 -91 -131 -128 -89 -151
29 -15 54 -3 144 71 67 55 74 58 87 42 30 -34 37 -57 28 -96 -11 -51 -54 -93
-148 -145 -95 -53 -112 -68 -112 -97 0 -35 38 -40 95 -15 26 12 52 21 56 21 5
0 19 -20 31 -45 20 -41 21 -49 9 -97 -22 -88 -61 -118 -176 -137 -39 -7 -77
-16 -85 -21 -22 -14 -1 -63 30 -70 38 -9 35 -34 -7 -67 -67 -53 -92 -62 -148
-52 -27 5 -88 14 -134 21 l-83 13 -17 45 c-16 43 -19 45 -54 44 -20 -1 -43 -7
-52 -14 -20 -16 -19 -64 1 -117 20 -51 36 -57 194 -73 87 -9 140 -22 140 -33
0 -11 -78 -193 -106 -250 -20 -38 -34 -78 -32 -89 2 -16 26 -29 98 -57 52 -21
105 -43 118 -49 28 -16 28 -46 1 -73 -29 -29 -87 -19 -209 34 -143 63 -132 50
-109 132 32 116 61 239 62 265 2 24 0 25 -48 22 -60 -4 -108 -17 -330 -89
-248 -81 -251 -83 -192 -150 33 -38 150 -196 181 -244 17 -27 16 -27 -32 -86
-132 -159 -268 -236 -302 -173 -14 27 9 66 84 140 31 30 56 62 56 72 0 10 -16
26 -37 37 -88 45 -303 219 -303 244 0 6 32 62 72 125 77 124 79 137 23 157
-25 9 -31 6 -64 -32 -21 -23 -52 -68 -69 -100 -61 -111 -118 -196 -145 -217
-32 -24 -161 -35 -194 -17 -29 15 -34 47 -12 75 23 30 24 44 2 68 -21 23 -59
23 -114 -1 -24 -11 -70 -24 -102 -31 -53 -11 -59 -10 -85 10 -32 26 -51 57
-52 86 0 19 7 22 70 27 84 7 90 10 90 47 0 36 -8 38 -149 50 -145 13 -243 33
-280 59 -31 23 -55 69 -49 98 4 20 27 22 137 8 56 -7 66 -6 77 10 20 27 17 53
-6 65 -11 6 -81 26 -155 45 -186 47 -216 66 -231 141 -4 23 0 34 23 56 l28 27
83 -20 c109 -26 143 -23 157 15 14 41 -13 58 -148 91 -165 39 -297 93 -317
128 -14 26 -14 29 4 43 37 27 131 56 201 61 l70 6 18 -50 c31 -86 108 -140
183 -128 33 5 45 3 47 -7 13 -50 65 -196 94 -259 42 -93 59 -104 145 -96 73 7
387 62 436 76 33 10 36 8 124 -75 72 -68 96 -84 121 -84 36 0 67 25 67 54 0
31 -179 216 -208 216 -12 0 -64 -9 -115 -21 -88 -20 -265 -50 -374 -64 -47 -6
-53 -5 -67 17 -33 52 -80 187 -110 322 l-7 28 -73 -7 c-73 -6 -74 -6 -110 25
-26 23 -36 40 -36 62 0 26 6 32 58 55 76 35 155 42 183 17 12 -11 43 -63 70
-116 26 -54 69 -130 94 -169 47 -71 47 -71 83 -64 36 6 154 45 313 101 l76 28
49 -41 c73 -60 127 -85 181 -81 80 5 86 58 9 84 -43 16 -101 61 -127 101 -23
34 -25 122 -5 161 18 35 65 78 94 87 13 4 51 4 84 0 49 -6 67 -14 98 -41 20
-18 45 -52 55 -74 16 -37 17 -51 8 -143 -11 -112 -10 -123 18 -132 46 -15 84
33 102 130 l12 69 85 27 c47 15 132 42 190 60 117 35 167 58 192 86 16 18 17
27 3 129 -8 60 -17 143 -21 184 -6 71 -5 76 20 103 23 24 32 28 74 25 l47 -3
-3 -35 c-7 -71 -7 -199 1 -341 l8 -147 -46 -25 c-66 -37 -302 -134 -365 -150
-68 -17 -69 -24 -39 -155 34 -152 51 -176 114 -164 53 10 54 42 12 234 -1 5
63 35 143 67 181 72 252 106 274 130 16 18 17 36 8 232 l-9 212 23 41 c27 47
31 111 9 143 -15 21 -13 24 47 67 70 49 241 136 270 136 10 0 28 -10 39 -21z
m-717 -505 c11 -80 7 -113 -12 -123 -21 -11 -346 -111 -362 -111 -25 0 -3 21
88 84 53 37 133 96 177 131 44 35 85 64 91 64 6 1 14 -20 18 -45z m-1019 -303
c47 -6 50 -8 53 -36 3 -33 2 -34 -247 -118 l-63 -22 -24 30 c-27 32 -94 147
-94 159 0 8 286 -2 375 -13z"/>
<path d="M5350 2448 c-77 -39 -120 -76 -120 -103 0 -6 9 -20 20 -30 24 -21 49
-14 149 44 103 61 119 82 85 115 -23 24 -45 20 -134 -26z"/>
<path d="M5361 2301 c-101 -35 -137 -83 -87 -116 23 -15 29 -15 93 4 90 27
133 54 133 84 0 50 -46 60 -139 28z"/>
<path d="M5290 2097 c-27 -14 -32 -56 -9 -83 21 -26 175 -13 217 19 19 14 14
55 -7 67 -28 14 -171 12 -201 -3z"/>
<path d="M3925 1966 c-87 -41 -102 -57 -87 -91 15 -33 47 -32 147 5 95 36 133
67 116 99 -18 33 -89 27 -176 -13z"/>
<path d="M4109 1851 c-148 -74 -191 -120 -154 -161 25 -28 38 -26 119 20 119
67 143 98 106 138 -25 26 -25 26 -71 3z"/>
<path d="M4150 1714 c-53 -36 -120 -109 -120 -131 0 -24 26 -43 58 -43 10 0
52 31 91 69 56 54 72 75 69 93 -2 18 -10 24 -38 26 -21 2 -45 -4 -60 -14z"/>
<path d="M6704 3445 c-26 -63 -28 -89 -6 -109 11 -9 31 -16 44 -14 19 2 25 12
32 51 12 60 -1 101 -32 105 -18 3 -26 -4 -38 -33z"/>
<path d="M6535 3426 c-59 -40 -170 -161 -243 -263 -92 -130 -123 -206 -123
-308 0 -82 17 -137 90 -284 28 -57 51 -115 51 -129 0 -13 -13 -52 -30 -87 -33
-70 -144 -183 -248 -254 -131 -89 -223 -202 -263 -325 -18 -56 -20 -72 -10
-109 13 -55 68 -152 119 -215 62 -74 75 -107 69 -174 -9 -96 -77 -190 -190
-262 -106 -68 -207 -82 -368 -49 -49 9 -126 16 -184 15 -85 -1 -112 -5 -183
-32 -46 -16 -101 -39 -122 -50 -42 -21 -129 -56 -260 -102 -76 -27 -100 -31
-235 -35 -133 -4 -164 -2 -277 21 -149 30 -275 69 -303 94 -11 9 -33 40 -49
67 -67 116 -178 245 -266 310 -61 45 -157 75 -265 82 -124 8 -121 14 -106
-185 6 -86 14 -181 17 -209 4 -43 3 -53 -10 -53 -21 0 -65 60 -73 101 -10 53
-41 119 -72 154 -16 18 -32 50 -36 71 -11 61 -42 113 -72 120 -37 10 -79 -38
-88 -99 l-7 -45 -34 10 c-57 15 -94 -18 -94 -85 0 -43 21 -62 97 -88 33 -11
72 -32 86 -47 25 -27 82 -152 69 -152 -4 0 -44 12 -88 26 -45 15 -88 24 -97
21 -55 -21 -35 -277 30 -372 31 -45 110 -118 153 -140 64 -32 129 -44 287 -51
163 -8 290 6 380 42 57 23 64 24 90 10 40 -20 266 -61 488 -87 156 -18 403 5
542 51 34 11 123 51 198 89 74 39 166 82 203 98 l67 28 340 0 c373 1 409 5
575 66 132 48 207 94 295 183 153 154 183 260 131 466 -26 102 -52 163 -136
320 -46 87 -58 132 -40 164 12 24 97 98 190 166 108 79 191 169 228 249 19 41
37 92 39 112 10 74 -23 201 -108 410 -56 139 -89 521 -54 634 19 64 19 110 -1
129 -23 24 -44 20 -99 -18z m-35 -191 c0 -8 -7 -15 -15 -15 -26 0 -18 20 13
29 1 1 2 -6 2 -14z m-12 -118 c3 -23 0 -28 -15 -25 -10 2 -17 10 -15 16 3 17
-9 15 -23 -4 -8 -11 -19 -14 -33 -10 -21 7 -21 8 -4 32 13 19 25 23 52 22 30
-3 35 -7 38 -31z m17 -109 c1 -2 5 -22 8 -44 l5 -41 -52 -7 c-28 -3 -79 -6
-113 -6 -72 0 -75 6 -45 73 l17 40 89 -6 c48 -3 89 -7 91 -9z m25 -194 c0 -14
-4 -23 -10 -19 -6 4 -8 11 -4 16 3 6 -7 7 -28 3 -18 -4 -44 -7 -58 -6 -103 5
-134 -4 -111 -32 7 -8 9 -21 5 -27 -5 -8 -2 -11 7 -7 41 15 63 20 54 10 -5 -5
-25 -13 -43 -17 -31 -6 -33 -5 -27 14 4 12 2 21 -4 21 -20 0 -11 39 10 45 11
4 59 10 107 14 48 5 90 9 95 10 4 0 7 -11 7 -25z m-20 -34 c0 -13 -24 -17 -50
-9 -25 9 -25 9 3 5 17 -2 27 1 27 10 0 8 -7 11 -17 8 -15 -5 -15 -4 -3 4 14
11 40 -1 40 -18z m-100 0 c-8 -5 -19 -10 -25 -10 -5 0 -3 5 5 10 8 5 20 10 25
10 6 0 3 -5 -5 -10z m38 -27 c-10 -2 -26 -2 -35 0 -10 3 -2 5 17 5 19 0 27 -2
18 -5z m130 -106 c8 -21 13 -39 11 -41 -2 -2 -49 -7 -104 -11 l-101 -7 -12 28
c-16 34 -7 41 68 49 30 4 66 10 80 15 35 12 41 9 58 -33z m55 -169 c3 -13 12
-47 20 -75 18 -65 18 -65 -103 -25 -75 24 -85 30 -87 52 -1 15 0 18 3 8 3 -10
14 -18 25 -18 10 0 19 -5 19 -11 0 -6 9 -8 20 -4 11 3 20 2 20 -3 0 -6 10 -8
22 -4 12 3 17 7 10 10 -7 2 -10 8 -6 13 3 5 3 17 0 27 -5 14 -17 17 -56 17
-36 0 -49 4 -45 13 7 19 -5 14 -27 -10 -17 -20 -19 -20 -13 -4 3 11 0 23 -7
28 -7 4 35 8 93 8 102 0 107 -1 112 -22z m-90 -199 c67 -23 123 -43 125 -44 8
-7 -38 -82 -66 -108 l-29 -28 -49 33 c-27 19 -76 53 -109 78 -33 24 -61 45
-63 46 -10 5 36 64 51 64 9 0 72 -19 140 -41z m-208 -118 c3 -5 2 -12 -3 -15
-5 -3 -9 1 -9 9 0 17 3 19 12 6z m36 -28 c13 -16 12 -17 -3 -4 -10 7 -18 15
-18 17 0 8 8 3 21 -13z m-127 -24 c-2 -4 8 -17 22 -28 15 -12 23 -21 18 -21
-8 0 -64 47 -64 54 0 1 7 3 15 3 8 0 12 -4 9 -8z m186 -20 c3 -3 20 -14 38
-23 19 -10 32 -20 29 -22 -6 -6 -82 40 -91 55 -4 6 -14 8 -24 5 -14 -5 -14 -4
-2 4 13 10 32 3 50 -19z m-109 -41 c-11 -10 -13 -10 -7 0 4 6 2 12 -4 12 -6 0
-8 5 -4 11 4 8 9 8 17 0 8 -8 7 -14 -2 -23z m-78 -68 l88 -64 -38 -33 c-21
-18 -45 -32 -53 -33 -25 0 -231 103 -227 114 6 18 121 95 132 88 6 -4 50 -36
98 -72z m112 40 c10 -11 14 -20 9 -20 -5 0 -15 9 -22 20 -7 11 -11 20 -9 20 2
0 12 -9 22 -20z m-397 -151 c-20 -13 -28 -11 -22 5 3 8 12 12 21 9 12 -5 12
-7 1 -14z m107 -39 c3 -5 1 -10 -4 -10 -6 0 -11 5 -11 10 0 6 2 10 4 10 3 0 8
-4 11 -10z m45 -16 c0 -2 -7 -4 -15 -4 -8 0 -15 4 -15 10 0 5 7 7 15 4 8 -4
15 -8 15 -10z m40 -24 c18 -12 2 -12 -25 0 -13 6 -15 9 -5 9 8 0 22 -4 30 -9z
m-65 -60 c3 -6 -1 -7 -9 -4 -18 7 -21 14 -7 14 6 0 13 -4 16 -10z m-68 -6 c-3
-3 -12 -4 -19 -1 -8 3 -5 6 6 6 11 1 17 -2 13 -5z m-80 -10 c-3 -3 -12 -4 -19
-1 -8 3 -5 6 6 6 11 1 17 -2 13 -5z m296 -109 c9 -19 13 -36 9 -38 -4 -3 -65
-15 -136 -27 l-129 -22 -23 28 c-40 48 -47 64 -31 70 8 3 61 9 118 13 183 14
173 15 192 -24z m67 -145 c0 -5 -2 -10 -4 -10 -3 0 -8 5 -11 10 -3 6 -1 10 4
10 6 0 11 -4 11 -10z m-140 -14 c0 -9 -40 -13 -46 -5 -3 5 6 9 20 9 14 0 26
-2 26 -4z m3 -113 c-7 -2 -21 -2 -30 0 -10 3 -4 5 12 5 17 0 24 -2 18 -5z m67
-13 c18 -12 2 -12 -25 0 -13 6 -15 9 -5 9 8 0 22 -4 30 -9z m5 -99 c173 -43
172 -42 180 -94 8 -53 -8 -118 -38 -152 l-22 -25 -86 67 c-194 153 -220 176
-215 190 4 8 6 21 6 29 0 21 41 18 175 -15z m-2893 -35 c25 -8 65 -27 88 -42
l41 -27 -36 -13 c-64 -22 -99 -89 -93 -175 5 -67 23 -97 86 -146 36 -27 39
-33 26 -44 -24 -20 -44 -65 -44 -101 0 -56 51 -137 104 -165 26 -14 27 -16 12
-25 -33 -18 -235 -21 -374 -4 -109 13 -142 21 -180 43 -60 35 -75 50 -97 93
-17 31 -48 141 -42 146 1 2 34 -7 72 -18 39 -11 106 -31 150 -43 44 -13 115
-35 158 -49 60 -20 83 -23 98 -15 13 6 18 17 14 28 -5 16 -15 87 -35 241 -5
41 -14 99 -20 129 -5 29 -10 87 -10 127 0 84 1 84 82 60z m198 -194 c27 -22
40 -112 20 -137 -18 -21 -63 -19 -94 6 -21 16 -26 29 -26 63 0 76 49 109 100
68z m2432 -83 c32 -46 57 -88 58 -93 0 -5 11 -24 26 -43 l25 -33 -28 -11 c-57
-22 -106 -39 -107 -37 -1 2 -12 23 -25 48 -37 68 -38 70 -67 139 l-28 63 34
29 c18 16 38 28 44 26 6 -2 37 -41 68 -88z m-746 -50 c5 -9 24 -190 20 -195
-1 -1 -22 -4 -47 -7 l-47 -6 -13 67 c-6 37 -18 81 -26 99 -7 18 -13 35 -13 37
0 3 21 7 48 9 26 2 52 4 59 5 6 1 15 -3 19 -9z m-1469 -104 c19 -9 50 -19 69
-22 19 -3 36 -9 39 -13 2 -4 -7 -38 -20 -76 -13 -38 -31 -99 -41 -136 -9 -38
-21 -68 -26 -68 -5 0 -22 7 -38 15 -30 16 -38 30 -20 37 15 5 42 128 36 163
-4 22 -23 48 -55 78 l-49 46 17 35 16 34 19 -39 c12 -23 33 -45 53 -54z m1833
53 c1 -18 7 -61 14 -95 l14 -63 -48 0 c-54 0 -51 -5 -66 122 -6 56 -6 56 22
61 63 9 64 9 64 -25z m-720 -143 c17 -49 30 -94 30 -101 0 -6 -19 -19 -42 -28
-46 -19 -58 -12 -58 36 0 15 -11 53 -25 84 -17 39 -22 61 -15 68 9 9 72 34 78
31 1 -1 16 -42 32 -90z m-1256 9 c22 -22 29 -55 19 -95 -8 -28 -14 -35 -40
-37 -24 -2 -36 4 -57 28 -33 40 -33 73 0 99 32 25 57 27 78 5z m1046 -6 c0 -4
-4 -8 -9 -8 -6 0 -12 4 -15 8 -3 5 1 9 9 9 8 0 15 -4 15 -9z m717 -4 c-3 -3
-12 -4 -19 -1 -8 3 -5 6 6 6 11 1 17 -2 13 -5z m-1227 -11 l33 -6 -7 -110 c-4
-61 -9 -120 -12 -132 -5 -22 -13 -23 -100 -9 l-31 4 29 118 c16 64 31 123 33
130 5 14 10 14 55 5z m359 -44 c12 -35 36 -197 30 -203 -10 -9 -84 -10 -85 -1
-2 29 -15 156 -20 193 l-5 42 34 0 c30 0 37 -4 46 -31z m-199 17 c0 -3 -4 -8
-10 -11 -5 -3 -10 -1 -10 4 0 6 5 11 10 11 6 0 10 -2 10 -4z m30 -6 c0 -5 -2
-10 -4 -10 -3 0 -8 5 -11 10 -3 6 -1 10 4 10 6 0 11 -4 11 -10z m-50 -40 c0
-5 -2 -10 -4 -10 -3 0 -8 5 -11 10 -3 6 -1 10 4 10 6 0 11 -4 11 -10z m355
-140 c3 -5 1 -10 -4 -10 -6 0 -11 5 -11 10 0 6 2 10 4 10 3 0 8 -4 11 -10z
m-375 -50 c0 -5 -4 -10 -10 -10 -5 0 -10 5 -10 10 0 6 5 10 10 10 6 0 10 -4
10 -10z m87 -6 c-3 -3 -12 -4 -19 -1 -8 3 -5 6 6 6 11 1 17 -2 13 -5z"/>
<path d="M6538 2483 c7 -3 16 -2 19 1 4 3 -2 6 -13 5 -11 0 -14 -3 -6 -6z"/>
<path d="M6600 2443 c0 -15 18 -35 23 -27 3 5 -1 15 -9 22 -8 7 -14 9 -14 5z"/>
<path d="M6591 2391 c-7 -5 -9 -11 -5 -14 5 -3 15 1 22 9 14 16 5 18 -17 5z"/>
<path d="M6630 2380 c-9 -6 -10 -10 -3 -10 6 0 15 5 18 10 8 12 4 12 -15 0z"/>
<path d="M3475 950 c-15 -17 -16 -24 -7 -45 20 -43 82 -28 82 20 0 45 -44 59
-75 25z"/>
<path d="M3544 636 c-12 -32 0 -61 28 -64 34 -4 54 27 38 58 -12 23 -58 27
-66 6z"/>
<path d="M7727 3286 c-88 -33 -181 -125 -230 -228 -26 -56 -43 -59 -151 -26
-54 16 -97 22 -181 22 -98 0 -116 -3 -167 -26 -78 -36 -126 -74 -160 -127 -33
-53 -36 -98 -9 -156 18 -40 18 -40 -5 -70 -41 -54 -36 -108 14 -166 21 -24 49
-64 63 -89 37 -67 146 -198 189 -226 51 -34 99 -40 141 -19 19 10 39 25 46 34
17 22 16 120 -2 171 l-15 42 43 49 42 49 60 -3 60 -2 -3 -53 c-5 -73 12 -94
121 -148 74 -38 105 -48 160 -52 l68 -5 40 44 c38 42 42 43 102 44 34 1 72 6
84 13 56 31 76 146 37 212 -18 31 -66 72 -96 82 -7 3 -8 23 -4 62 7 49 14 65
45 97 63 66 89 198 60 304 -13 49 -85 122 -152 154 -59 29 -149 36 -200 17z"/>
<path d="M6690 3201 c-5 -11 -10 -40 -10 -64 0 -37 4 -48 26 -62 14 -9 31 -14
38 -12 16 6 27 103 15 135 -11 28 -54 30 -69 3z"/>
<path d="M2044 3085 c-18 -12 -22 -28 -26 -97 -4 -60 -14 -104 -37 -161 -32
-81 -32 -97 4 -127 14 -11 20 -9 48 18 70 68 122 331 73 368 -25 18 -36 18
-62 -1z"/>
<path d="M2258 3073 c-9 -11 -18 -45 -20 -83 -4 -43 -16 -88 -37 -134 -17 -38
-31 -78 -31 -90 0 -26 26 -66 43 -66 48 1 137 202 137 312 0 37 -5 50 -22 62
-29 21 -51 20 -70 -1z"/>
<path d="M6723 3015 c-18 -13 -43 -68 -43 -97 0 -13 44 -48 61 -48 17 0 24 21
34 104 3 26 0 43 -8 48 -17 11 -19 10 -44 -7z"/>
<path d="M9710 2990 c-36 -36 -25 -60 51 -106 73 -44 122 -45 127 -2 3 28 -20
50 -110 102 l-47 27 -21 -21z"/>
<path d="M8162 2968 c-17 -17 -15 -35 9 -86 l22 -44 -38 -31 c-21 -17 -44 -46
-52 -65 -12 -30 -12 -37 2 -58 20 -31 48 -30 79 3 14 15 28 25 31 21 3 -3 0
-36 -6 -74 -25 -144 17 -167 165 -89 48 26 94 45 104 43 13 -2 16 -16 17 -69
1 -110 43 -129 136 -59 30 22 56 40 60 40 20 0 49 -42 69 -100 31 -88 64 -151
89 -174 68 -62 245 -40 324 39 88 89 77 202 -30 307 -39 38 -49 43 -87 42 -79
-2 -145 -77 -146 -165 0 -47 19 -63 65 -55 31 6 35 10 35 39 0 39 24 77 49 77
25 0 70 -50 77 -88 12 -57 -36 -105 -120 -121 -57 -10 -111 2 -126 28 -5 11
-24 59 -41 108 -49 137 -116 191 -197 158 -45 -19 -52 -19 -52 4 0 25 -35 68
-72 87 -37 19 -68 14 -149 -22 -33 -15 -62 -24 -66 -21 -3 4 0 33 7 66 7 33
10 71 6 85 -11 43 -93 161 -121 174 -32 15 -28 15 -43 0z"/>
<path d="M1070 2860 c-16 -30 37 -127 98 -178 88 -74 187 -102 352 -101 150 0
200 19 200 75 0 12 -7 25 -16 28 -9 3 -82 6 -163 5 -135 -1 -151 1 -211 25
-70 28 -134 81 -162 134 -14 27 -23 32 -52 32 -25 0 -38 -6 -46 -20z"/>
<path d="M6038 2829 c-13 -7 -18 -23 -18 -59 0 -64 12 -92 45 -110 25 -13 28
-13 42 5 11 15 13 35 8 85 -9 87 -29 107 -77 79z"/>
<path d="M2392 2788 c-27 -27 -7 -83 36 -100 15 -5 72 -21 127 -34 55 -13 110
-26 122 -30 16 -4 29 1 48 21 51 56 29 73 -160 120 -156 39 -157 39 -173 23z"/>
<path d="M9633 2768 c-37 -48 -10 -85 91 -127 60 -25 80 -29 100 -21 40 15 34
52 -11 83 -42 27 -144 77 -160 77 -6 0 -15 -6 -20 -12z"/>
<path d="M9424 2611 c-67 -11 -90 -25 -98 -58 -20 -93 -28 -139 -41 -236 -8
-60 -17 -112 -20 -116 -2 -5 -28 -11 -57 -14 -183 -19 -265 -26 -357 -29
l-104 -3 -19 60 c-35 107 -125 171 -274 196 -61 10 -83 9 -145 -5 -85 -19
-133 -46 -199 -110 -44 -43 -100 -138 -100 -170 0 -22 -16 -24 -360 -52 -72
-5 -228 -29 -542 -80 -316 -52 -392 -82 -446 -173 -33 -57 -34 -130 -3 -212
48 -126 122 -186 217 -176 109 11 186 79 208 184 l7 31 122 6 c345 17 493 22
501 15 10 -9 -12 -71 -66 -187 l-38 -83 -300 5 -300 5 -15 -23 c-12 -17 -75
-215 -75 -233 0 -9 -32 1 -74 22 -36 18 -65 25 -106 25 -55 0 -59 -2 -99 -45
-35 -38 -41 -51 -41 -87 0 -76 46 -153 145 -246 94 -87 179 -137 296 -177 73
-25 93 -25 104 3 8 17 11 30 39 157 24 107 78 285 87 285 13 0 224 -52 232
-57 5 -3 -28 -30 -73 -60 l-82 -55 6 -36 c4 -21 11 -64 16 -97 5 -33 16 -92
24 -132 7 -40 11 -75 8 -78 -3 -3 -24 -5 -47 -5 -66 0 -140 -27 -169 -61 -20
-23 -26 -42 -26 -78 0 -66 40 -120 115 -156 53 -26 63 -28 203 -28 103 0 171
5 227 17 127 27 132 37 100 207 -31 170 -41 299 -23 299 28 0 255 121 310 165
68 55 164 179 204 264 16 33 33 59 38 57 10 -2 11 -4 51 -87 57 -119 225 -263
390 -335 36 -16 65 -34 65 -40 0 -7 -13 -38 -29 -70 -16 -33 -38 -81 -48 -109
-11 -27 -30 -75 -43 -105 -12 -30 -27 -72 -34 -94 -10 -34 -9 -40 11 -56 30
-24 209 -87 302 -106 146 -31 328 -12 379 39 78 78 -4 237 -136 263 -18 4 -34
10 -37 14 -2 4 14 31 36 61 22 30 55 78 72 108 18 29 42 70 54 90 12 20 22 42
23 49 0 16 -75 89 -163 159 -65 53 -64 54 33 72 36 7 87 19 114 27 70 20 86
18 86 -8 0 -13 7 -54 15 -91 8 -38 17 -92 20 -120 10 -96 27 -172 41 -183 8
-6 26 -9 42 -7 38 7 202 87 233 115 139 122 165 155 180 225 13 62 13 73 4
171 -9 87 -25 102 -102 96 -32 -3 -71 -10 -87 -15 -16 -5 -31 -7 -34 -5 -2 3
-8 35 -12 73 -12 104 -27 151 -57 170 -25 16 -38 16 -277 -12 -138 -16 -267
-29 -285 -29 -33 -1 -39 4 -108 104 -40 57 -73 107 -73 111 0 4 21 9 48 12
136 15 456 59 521 71 40 8 80 21 89 30 12 12 17 53 23 193 4 98 8 195 8 215 1
33 6 40 39 57 20 10 47 30 59 43 26 27 53 88 53 119 0 36 -78 105 -140 123
-68 20 -169 27 -236 17z"/>
<path d="M2455 2579 c-49 -4 -196 -13 -325 -19 -129 -6 -291 -15 -360 -20 -69
-5 -201 -11 -295 -14 -229 -8 -465 -24 -609 -42 -65 -8 -212 -19 -326 -24
-115 -5 -220 -12 -234 -15 -14 -3 -37 -7 -51 -10 -16 -4 -30 -16 -36 -33 -47
-120 -66 -1062 -30 -1462 11 -118 27 -291 36 -385 16 -183 33 -318 41 -340 9
-23 42 -25 264 -15 118 5 354 10 525 10 171 0 411 7 535 15 124 8 284 15 355
15 72 0 186 4 255 10 69 5 192 14 274 19 105 7 153 14 163 24 12 12 13 60 4
328 -5 173 -10 510 -10 749 0 239 -5 551 -10 692 -5 142 -7 299 -4 350 2 51 1
111 -4 133 -10 47 -14 48 -158 34z m-722 -186 c-7 -2 -19 -2 -25 0 -7 3 -2 5
12 5 14 0 19 -2 13 -5z m-536 -39 c-3 -3 -12 -4 -19 -1 -8 3 -5 6 6 6 11 1 17
-2 13 -5z m-394 -21 c-13 -2 -33 -2 -45 0 -13 2 -3 4 22 4 25 0 35 -2 23 -4z
m-113 -13 c0 -13 -30 -13 -50 0 -11 7 -7 10 18 10 17 0 32 -4 32 -10z m-122
-32 c2 -20 -1 -28 -12 -28 -9 0 -16 5 -16 10 0 6 5 10 10 10 20 0 9 29 -12 33
-20 3 -20 4 2 3 20 -1 26 -7 28 -28z m-174 7 c-4 -8 -12 -15 -20 -15 -20 0
-17 18 4 23 9 3 18 5 19 6 1 0 0 -6 -3 -14z m83 7 c13 -4 19 -12 15 -18 -9
-14 -75 3 -67 16 7 11 19 11 52 2z m66 -9 c-7 -2 -19 -2 -25 0 -7 3 -2 5 12 5
14 0 19 -2 13 -5z m-99 -28 c3 -9 0 -15 -10 -15 -8 0 -13 4 -9 9 3 5 -3 12
-12 14 -14 4 -14 5 3 6 12 0 24 -6 28 -14z m-68 -4 c-4 -5 -1 -12 4 -14 6 -3
5 -4 -2 -3 -15 3 -23 26 -8 26 6 0 9 -4 6 -9z m374 -16 c8 -9 9 -15 2 -15 -6
0 -14 5 -17 11 -4 6 -13 8 -21 5 -8 -3 -14 -1 -14 4 0 15 36 12 50 -5z m-70 1
c0 -11 -19 -15 -25 -6 -3 5 1 10 9 10 9 0 16 -2 16 -4z m279 -25 c-3 -6 -10
-7 -18 -2 -7 5 -10 14 -6 21 9 14 29 -2 24 -19z m-489 9 c0 -5 -14 -10 -31
-10 -17 0 -28 4 -24 10 3 6 17 10 31 10 13 0 24 -4 24 -10z m400 -11 c0 -5 -4
-9 -10 -9 -5 0 -10 7 -10 16 0 8 5 12 10 9 6 -3 10 -10 10 -16z m-80 1 c-8 -5
-24 -9 -35 -9 -16 1 -16 2 5 9 35 11 48 11 30 0z m-423 -52 c-3 -7 -5 -2 -5
12 0 14 2 19 5 13 2 -7 2 -19 0 -25z m351 25 c-10 -2 -26 -2 -35 0 -10 3 -2 5
17 5 19 0 27 -2 18 -5z m49 1 c-3 -3 -12 -4 -19 -1 -8 3 -5 6 6 6 11 1 17 -2
13 -5z m281 -49 c-3 -3 -9 2 -12 12 -6 14 -5 15 5 6 7 -7 10 -15 7 -18z m305
-22 c-7 -2 -19 -2 -25 0 -7 3 -2 5 12 5 14 0 19 -2 13 -5z m151 -32 c-2 -3
-12 3 -22 13 -16 17 -16 18 5 5 12 -7 20 -15 17 -18z m-554 -11 c6 -11 7 -20
2 -20 -6 0 -12 9 -15 20 -3 11 -3 20 -1 20 2 0 8 -9 14 -20z m27 -22 c-3 -8
-6 -5 -6 6 -1 11 2 17 5 13 3 -3 4 -12 1 -19z m-239 3 c11 -7 10 -9 -3 -14 -9
-4 -14 -3 -10 2 3 5 -1 12 -7 14 -7 3 -8 6 -3 6 6 0 16 -3 23 -8z m-388 -11
c0 -5 -2 -10 -4 -10 -3 0 -8 5 -11 10 -3 6 -1 10 4 10 6 0 11 -4 11 -10z m461
-37 c-11 -16 -11 -15 -5 6 4 17 3 21 -6 16 -9 -6 -11 -4 -5 4 5 9 11 9 17 3 7
-7 6 -16 -1 -29z m404 27 c3 -5 2 -10 -4 -10 -5 0 -13 5 -16 10 -3 6 -2 10 4
10 5 0 13 -4 16 -10z m-441 -9 c4 -5 -4 -7 -16 -4 -19 4 -20 3 -8 -6 17 -12
10 -14 -15 -5 -13 5 -14 8 -3 15 17 11 35 11 42 0z m196 -12 c0 -5 -4 -9 -10
-9 -5 0 -10 7 -10 16 0 8 5 12 10 9 6 -3 10 -10 10 -16z m990 11 c12 -8 10
-15 -16 -42 -41 -44 -54 -80 -61 -158 l-6 -67 63 -41 c34 -23 66 -42 71 -42 5
0 9 -4 9 -10 0 -5 -18 -10 -39 -10 -47 0 -90 -15 -96 -32 -2 -7 -6 -35 -10
-61 l-6 -48 -47 7 c-26 4 -51 12 -55 18 -11 15 -1 263 13 317 29 113 52 156
88 171 25 10 75 9 92 -2z m-1003 -31 c8 -3 8 -9 -3 -23 -11 -16 -17 -17 -26
-8 -9 9 -8 12 8 12 18 1 18 1 2 14 -10 7 -15 16 -11 20 4 3 9 2 12 -2 3 -5 11
-11 18 -13z m223 12 c0 -5 -6 -14 -14 -20 -12 -10 -14 -9 -11 6 2 10 4 19 4
21 2 6 21 1 21 -7z m-134 -48 c1 -7 -4 -9 -9 -6 -5 3 -13 -1 -18 -8 -4 -7 -12
-10 -16 -5 -4 5 -2 11 4 13 8 3 11 14 7 30 -7 26 -7 26 13 7 10 -10 19 -24 19
-31z m-152 20 c-5 -5 -12 -12 -16 -18 -4 -6 -8 -2 -8 8 0 9 7 17 17 17 9 0 12
-3 7 -7z m500 -11 c4 -2 -5 -13 -22 -24 -35 -22 -67 -83 -76 -143 -7 -48 -6
-50 63 -100 l54 -39 -59 -19 c-32 -11 -62 -25 -66 -31 -4 -6 -8 -30 -8 -53 l0
-43 -60 0 -60 0 0 63 c0 73 22 196 45 252 25 59 72 123 103 139 24 13 61 12
86 -2z m-529 -23 c14 0 16 -2 5 -6 -8 -3 -18 -11 -22 -17 -5 -7 -8 -4 -8 7 0
9 -4 17 -10 17 -5 0 -10 5 -10 12 0 9 3 9 12 0 7 -7 21 -12 33 -13z m218 0 c4
-16 3 -18 -9 -8 -16 13 -19 29 -5 29 5 0 11 -9 14 -21z m-105 -14 c-3 -3 -9 2
-12 12 -6 14 -5 15 5 6 7 -7 10 -15 7 -18z m143 8 c13 -17 13 -17 -6 -3 -11 8
-22 16 -24 17 -2 2 0 3 6 3 6 0 17 -8 24 -17z m-178 0 c-7 -2 -19 -2 -25 0 -7
3 -2 5 12 5 14 0 19 -2 13 -5z m-210 -39 l32 -17 -35 -16 c-59 -27 -94 -85
-105 -172 l-7 -56 55 -44 c31 -23 54 -46 52 -50 -3 -4 -26 -10 -51 -14 -89
-13 -94 -18 -94 -80 l0 -55 -34 0 -34 0 -7 70 c-7 74 4 166 36 289 22 83 33
106 62 139 25 27 83 30 130 6z m216 -3 c11 -7 9 -13 -8 -30 -22 -22 -28 -41
-12 -41 5 0 11 6 14 14 4 9 14 12 25 9 11 -2 23 0 26 6 9 14 36 14 36 1 0 -5
-9 -10 -20 -10 -24 0 -26 -22 -4 -54 10 -16 12 -26 5 -31 -18 -10 -12 -25 9
-25 11 0 20 5 20 12 0 6 2 9 5 6 11 -10 -8 -38 -25 -38 -10 0 -21 -6 -24 -12
-3 -7 -3 -3 0 10 3 12 1 22 -5 22 -6 0 -11 17 -11 39 0 24 -6 44 -17 52 -15
13 -16 11 -9 -16 3 -16 3 -25 -1 -20 -15 18 -43 14 -43 -7 0 -10 5 -16 10 -13
6 4 10 -5 10 -19 0 -14 5 -26 11 -26 6 0 8 9 4 20 -4 13 -2 20 7 20 10 0 13
-10 10 -36 -3 -26 -1 -35 7 -30 7 5 11 -2 11 -19 0 -18 4 -25 13 -21 6 3 20 9
29 12 9 3 21 18 27 33 7 20 8 14 4 -29 -3 -30 -5 -76 -5 -102 0 -33 -4 -48
-13 -48 -8 0 -13 -14 -14 -37 -1 -21 -2 -48 -2 -60 -1 -28 -25 -30 -32 -3 -3
11 -1 20 4 20 5 0 9 7 9 15 0 20 -24 19 -41 -2 -9 -11 -10 -14 -2 -9 9 5 11 2
7 -8 -3 -9 -12 -16 -20 -16 -17 0 -19 37 -1 43 8 3 7 9 -6 19 -17 13 -17 15
-3 27 11 9 16 10 16 2 0 -6 5 -11 10 -11 7 0 7 7 0 20 -6 12 -8 31 -5 43 5 17
4 19 -4 7 -6 -8 -11 -23 -11 -32 0 -10 -4 -18 -10 -18 -5 0 -10 11 -10 24 0
13 -3 32 -7 42 -5 13 -3 15 8 9 11 -7 12 -6 2 7 -7 8 -11 17 -8 19 2 3 0 22
-5 44 -5 22 -10 69 -11 105 -1 36 -5 70 -10 76 -6 7 -4 16 6 24 8 7 12 16 9
21 -7 11 27 11 45 0z m698 -73 c-3 -8 -6 -5 -6 6 -1 11 2 17 5 13 3 -3 4 -12
1 -19z m23 -333 c0 -5 -5 -3 -10 5 -5 8 -10 20 -10 25 0 6 5 3 10 -5 5 -8 10
-19 10 -25z m-610 -46 c5 9 10 8 20 -4 11 -13 10 -15 -6 -9 -14 4 -13 1 6 -15
14 -11 20 -21 13 -21 -6 0 -15 5 -18 11 -4 6 -12 8 -19 6 -6 -3 -12 6 -12 22
-1 14 1 20 3 12 4 -10 7 -10 13 -2z m184 -28 c4 -5 -3 -7 -14 -4 -23 6 -26 13
-6 13 8 0 17 -4 20 -9z m39 -6 c4 -8 3 -16 -1 -19 -4 -3 -9 4 -9 15 -2 23 3
25 10 4z m567 7 c0 -14 -11 -21 -26 -15 -21 8 -17 23 6 23 11 0 20 -4 20 -8z
m-692 -9 c-10 -2 -26 -2 -35 0 -10 3 -2 5 17 5 19 0 27 -2 18 -5z m-194 -18
c-4 -8 -8 -15 -10 -15 -2 0 -4 7 -4 15 0 8 4 15 10 15 5 0 7 -7 4 -15z m606 5
c0 -5 -4 -10 -10 -10 -5 0 -10 5 -10 10 0 6 5 10 10 10 6 0 10 -4 10 -10z
m-500 -4 c0 -2 -7 -7 -16 -10 -8 -3 -12 -2 -9 4 6 10 25 14 25 6z m-3 -30 c16
-1 19 -4 11 -14 -7 -8 -15 -9 -22 -3 -6 5 -28 12 -49 16 -29 6 -36 4 -34 -6 2
-8 2 -10 -1 -6 -2 5 -10 -2 -16 -15 -9 -17 -19 -22 -39 -20 -24 3 -27 0 -27
-25 0 -16 -7 -38 -15 -50 -10 -14 -12 -24 -5 -28 5 -3 10 2 10 12 1 11 7 5 15
-16 17 -39 19 -55 5 -46 -5 3 -10 -3 -10 -14 0 -12 5 -21 11 -21 5 0 7 -4 4
-10 -3 -5 1 -10 10 -10 12 0 15 -6 10 -20 -4 -11 -2 -20 4 -20 6 0 11 5 11 11
0 5 5 7 10 4 6 -4 4 -12 -5 -22 -15 -14 -17 -14 -30 3 -8 11 -15 22 -15 26 0
4 -15 1 -32 -6 -34 -14 -62 -11 -52 5 3 5 0 9 -5 9 -6 0 -11 -9 -11 -20 0 -11
-4 -20 -9 -20 -5 0 -8 16 -6 35 3 26 0 35 -12 35 -10 0 -13 6 -9 16 3 9 6 21
6 27 0 8 3 7 9 -1 6 -10 14 -2 28 27 l20 41 -23 15 c-13 8 -30 15 -37 15 -8 0
-22 9 -32 20 -18 20 -17 20 50 15 38 -3 75 -11 82 -17 9 -7 13 -7 13 1 0 6 -4
11 -8 11 -5 0 -9 7 -9 15 0 9 10 15 23 15 13 0 26 5 29 10 4 6 10 8 14 5 5 -2
17 5 27 16 15 17 25 19 54 13 19 -4 45 -8 57 -8z m628 -6 c3 -5 1 -10 -4 -10
-6 0 -11 5 -11 10 0 6 2 10 4 10 3 0 8 -4 11 -10z m-486 -37 c9 -23 9 -25 -1
-13 -7 8 -19 15 -27 15 -8 0 -16 6 -18 13 -9 26 34 11 46 -15z m-819 7 c0 -5
-7 -10 -15 -10 -8 0 -15 5 -15 10 0 6 7 10 15 10 8 0 15 -4 15 -10z m751 -41
c22 -1 22 -1 -5 -10 -19 -5 -34 -5 -42 2 -9 7 -15 5 -23 -8 -14 -24 -14 -10 1
22 10 23 13 24 28 10 9 -8 27 -15 41 -16z m-681 1 c-9 -6 -9 -9 1 -16 7 -4 14
-3 17 4 2 7 16 12 30 11 15 0 20 -3 12 -6 -8 -2 -22 -7 -30 -10 -8 -4 -34 -7
-57 -8 -31 -1 -40 2 -36 12 3 7 12 13 20 13 8 0 12 4 9 9 -3 4 6 6 20 3 17 -3
21 -7 14 -12z m927 14 c-3 -3 -12 -4 -19 -1 -8 3 -5 6 6 6 11 1 17 -2 13 -5z
m107 -9 c4 -10 -1 -15 -15 -15 -11 0 -27 7 -35 15 -14 13 -12 15 14 15 17 0
32 -6 36 -15z m-874 -5 c0 -5 -9 -10 -21 -10 -11 0 -17 5 -14 10 3 6 13 10 21
10 8 0 14 -4 14 -10z m67 4 c-3 -3 -12 -4 -19 -1 -8 3 -5 6 6 6 11 1 17 -2 13
-5z m228 -19 c-3 -27 -12 -42 -20 -33 -6 6 11 58 19 58 2 0 3 -11 1 -25z m335
5 c0 -5 -4 -10 -10 -10 -5 0 -10 5 -10 10 0 6 5 10 10 10 6 0 10 -4 10 -10z
m35 0 c3 -5 -1 -10 -10 -10 -9 0 -13 5 -10 10 3 6 8 10 10 10 2 0 7 -4 10 -10z
m582 -22 c-3 -8 -6 -5 -6 6 -1 11 2 17 5 13 3 -3 4 -12 1 -19z m-1337 2 c0 -5
-7 -10 -15 -10 -8 0 -15 5 -15 10 0 6 7 10 15 10 8 0 15 -4 15 -10z m178 -1
c-2 -6 -8 -10 -13 -10 -5 0 -11 4 -13 10 -2 6 4 11 13 11 9 0 15 -5 13 -11z
m442 -15 c0 -2 -7 -4 -15 -4 -8 0 -15 4 -15 10 0 5 7 7 15 4 8 -4 15 -8 15
-10z m103 9 c-7 -2 -19 -2 -25 0 -7 3 -2 5 12 5 14 0 19 -2 13 -5z m456 -8 c3
-3 -7 -4 -23 -1 -16 3 -31 8 -35 11 -3 3 7 4 23 1 16 -3 31 -8 35 -11z m-957
-12 c2 -10 1 -29 -3 -43 -4 -16 -7 -19 -8 -7 -2 28 -2 31 -12 50 -7 12 -6 17
4 17 8 0 17 -8 19 -17z m295 3 c-4 -9 3 -16 19 -20 14 -4 22 -11 19 -15 -3 -5
1 -12 7 -14 7 -3 0 -6 -16 -6 -24 -1 -27 1 -16 14 8 9 9 15 2 15 -6 0 -14 -4
-17 -10 -3 -5 -12 -10 -18 -10 -8 0 -8 3 -2 8 6 4 10 13 11 20 2 25 4 32 10
32 3 0 4 -6 1 -14z m-452 -6 c3 -6 -1 -7 -9 -4 -18 7 -21 14 -7 14 6 0 13 -4
16 -10z m205 -15 c0 -8 -4 -15 -9 -15 -13 0 -22 16 -14 24 11 11 23 6 23 -9z
m555 -12 c-18 -13 -9 -19 20 -13 6 1 5 -4 -1 -10 -9 -9 -17 -9 -34 0 -21 11
-21 12 -3 30 10 9 22 15 27 12 5 -3 1 -11 -9 -19z m89 5 c-7 -12 -44 -10 -44
2 0 5 11 9 24 8 14 -1 22 -6 20 -10z m-304 -2 c0 -2 -7 -7 -16 -10 -8 -3 -12
-2 -9 4 6 10 25 14 25 6z m-520 -20 c0 -3 -4 -8 -10 -11 -5 -3 -10 -1 -10 4 0
6 5 11 10 11 6 0 10 -2 10 -4z m1595 -44 c-3 -3 -11 0 -18 7 -9 10 -8 11 6 5
10 -3 15 -9 12 -12z m-1482 -30 c-9 -2 -20 2 -27 9 -8 9 -8 10 2 5 7 -4 15 0
19 10 6 16 7 16 13 -2 5 -13 2 -20 -7 -22z m835 17 c-21 -14 11 -31 47 -24 20
3 25 2 16 -4 -7 -5 -10 -14 -7 -20 4 -6 0 -11 -9 -11 -10 0 -13 5 -9 13 6 9 5
9 -7 0 -12 -10 -20 -9 -36 2 -11 8 -24 11 -28 7 -4 -4 0 5 9 19 9 14 13 29 9
33 -4 4 1 4 11 0 14 -5 15 -9 4 -15z m457 -29 c-4 -22 -8 -48 -9 -56 -2 -15
-23 -34 -39 -34 -4 0 -14 14 -21 31 -13 30 -12 33 23 65 20 18 40 34 44 34 5
0 6 -18 2 -40z m-789 -31 c-1 -36 -36 -65 -36 -29 0 12 -5 18 -10 15 -6 -3
-20 -3 -32 1 -21 6 -21 6 3 19 15 9 26 10 30 3 4 -6 12 -4 20 6 20 22 25 20
25 -15z m454 24 c0 -5 -11 -9 -25 -9 -14 -1 -22 2 -19 7 6 11 44 12 44 2z
m-990 -13 c8 -5 11 -10 5 -10 -5 0 -17 5 -25 10 -8 5 -10 10 -5 10 6 0 17 -5
25 -10z m820 1 c0 -5 -6 -11 -12 -14 -18 -6 -39 3 -32 14 7 12 44 12 44 0z
m-614 -28 c-7 -7 -26 7 -26 19 0 6 6 6 15 -2 9 -7 13 -15 11 -17z m80 2 c1 -9
-6 -15 -16 -15 -10 0 -20 -7 -24 -15 -3 -8 -13 -15 -23 -14 -16 0 -16 1 2 9
14 6 15 9 5 10 -9 0 -4 7 13 18 15 9 27 21 27 26 0 14 14 -2 16 -19z m371 -6
c29 0 33 -2 18 -8 -11 -5 -23 -7 -27 -4 -4 2 -17 -1 -28 -7 -23 -12 -27 -40
-5 -40 8 0 15 -4 15 -10 0 -5 -12 -10 -26 -10 -14 0 -23 4 -19 10 3 6 1 10 -4
10 -6 0 -11 -4 -11 -10 0 -16 -67 -12 -73 4 -4 10 -1 13 8 10 27 -11 90 38 81
63 -4 10 -1 11 14 3 10 -5 36 -10 57 -11z m-324 4 c-7 -2 -19 -2 -25 0 -7 3
-2 5 12 5 14 0 19 -2 13 -5z m101 -14 c-8 -13 -64 -11 -64 2 0 7 10 9 26 5 16
-4 23 -3 19 3 -3 7 0 8 9 5 9 -3 13 -10 10 -15z m323 15 c-3 -3 -12 -4 -19 -1
-8 3 -5 6 6 6 11 1 17 -2 13 -5z m-1120 -36 c-3 -7 -5 -2 -5 12 0 14 2 19 5
13 2 -7 2 -19 0 -25z m543 -9 c51 -14 82 -36 36 -25 -44 11 -116 47 -116 59 0
5 8 3 18 -5 9 -9 37 -22 62 -29z m-6 30 c-2 -4 2 -10 8 -12 9 -4 8 -6 -3 -6
-8 -1 -24 6 -35 14 -18 14 -18 14 8 13 15 -1 25 -5 22 -9z m671 -9 c3 -6 -1
-7 -9 -4 -18 7 -21 14 -7 14 6 0 13 -4 16 -10z m42 4 c-3 -3 -12 -4 -19 -1 -8
3 -5 6 6 6 11 1 17 -2 13 -5z m289 -50 c7 -39 0 -49 -44 -60 -28 -8 -29 -7
-37 37 -6 30 -3 37 17 46 42 21 57 16 64 -23z m-496 0 c0 -2 -9 -4 -21 -4 -11
0 -18 4 -14 10 5 8 35 3 35 -6z m-283 0 c-3 -3 -12 -4 -19 -1 -8 3 -5 6 6 6
11 1 17 -2 13 -5z m-409 -20 c22 -15 30 -48 13 -58 -8 -6 -51 52 -51 68 0 10
14 7 38 -10z m-242 -13 c-3 -5 -15 -11 -26 -14 -17 -4 -19 -3 -9 9 12 15 44
20 35 5z m1262 -33 c10 -50 5 -55 -62 -64 l-46 -7 0 45 c0 42 2 46 33 56 58
18 65 15 75 -30z m-850 -23 c18 -5 22 -13 22 -46 0 -39 0 -39 -39 -39 -44 0
-48 5 -43 61 3 31 8 39 21 35 9 -2 26 -7 39 -11z m634 -15 c7 -43 -4 -52 -63
-54 -53 -1 -54 -1 -57 30 -3 29 -1 31 45 41 71 15 70 15 75 -17z m-432 -40 c0
-25 -4 -30 -35 -36 -50 -9 -65 0 -62 36 2 29 4 30 50 30 45 0 47 -1 47 -30z
m230 12 c0 -30 -22 -42 -77 -42 -49 0 -53 2 -53 24 0 30 10 34 78 35 44 1 52
-2 52 -17z m771 -25 c-10 -9 -11 -8 -5 6 3 10 9 15 12 12 3 -3 0 -11 -7 -18z
m-1475 -14 c-10 -10 -19 5 -10 18 6 11 8 11 12 0 2 -7 1 -15 -2 -18z m92 -83
c13 0 13 -3 4 -12 -10 -10 -15 -10 -22 2 -5 8 -9 20 -9 25 0 6 3 4 6 -2 2 -7
12 -13 21 -13z m75 -54 c4 -10 1 -13 -9 -9 -15 6 -19 23 -5 23 5 0 11 -7 14
-14z m-19 -27 c-7 -11 -34 -12 -34 -1 0 14 11 21 26 15 8 -3 11 -9 8 -14z m70
13 c2 -4 -5 -9 -17 -9 -17 -2 -19 0 -7 7 18 12 18 12 24 2z m1285 -51 c-1 -13
-2 -13 -6 2 -2 9 -9 17 -14 17 -5 0 -9 5 -9 11 0 8 5 8 15 -1 8 -7 14 -20 14
-29z m-1251 -2 c22 -27 18 -41 -5 -18 -7 7 -13 7 -17 1 -9 -16 47 -24 78 -12
27 10 31 9 107 -36 10 -6 16 -14 11 -19 -4 -4 1 -5 11 -2 10 4 16 3 13 -2 -3
-5 16 -11 42 -15 26 -3 58 -13 72 -21 37 -21 106 -54 136 -66 15 -5 24 -12 20
-16 -3 -3 -1 -12 5 -20 9 -10 8 -13 -2 -13 -10 -1 -9 -4 3 -14 15 -11 4 -13
-70 -13 -67 0 -74 1 -27 5 44 3 55 6 40 12 -18 8 -17 9 8 9 27 1 36 14 17 26
-6 3 -17 -1 -26 -9 -18 -18 -40 -21 -49 -6 -3 6 -23 9 -43 9 l-37 -2 40 -8 40
-7 -46 1 c-38 2 -46 -1 -44 -14 3 -12 -5 -15 -38 -13 -23 2 -53 3 -67 4 -18 0
-21 3 -11 9 11 7 9 10 -8 16 -24 7 -44 -2 -36 -16 4 -5 1 -9 -4 -9 -6 0 -11 5
-11 10 0 6 -9 10 -20 10 -11 0 -20 -4 -20 -10 0 -5 -5 -10 -10 -10 -6 0 -8 14
-6 33 3 17 3 26 0 20 -3 -7 -15 -13 -27 -14 -20 -1 -20 -2 3 -9 21 -7 19 -8
-15 -8 -22 0 -49 4 -60 9 -15 7 -12 8 15 4 27 -4 30 -3 15 4 -34 16 -65 12
-73 -8 -6 -17 -10 -18 -25 -6 -16 12 -15 14 14 24 18 6 40 11 50 11 9 0 19 5
21 11 3 9 10 9 23 2 22 -12 70 1 61 15 -7 12 -74 13 -81 1 -4 -5 -22 -7 -42
-3 -30 6 -35 4 -30 -9 6 -16 -12 -28 -41 -26 -13 0 -11 3 6 11 27 14 29 28 2
28 -11 0 -20 5 -20 10 0 10 26 15 61 12 22 -2 31 34 13 49 -20 16 -17 28 5 22
10 -3 22 0 26 7 5 8 13 6 26 -6 15 -14 22 -15 32 -5 9 9 5 17 -18 36 -36 29
-42 30 -48 8 -4 -17 -4 -17 -12 0 -4 9 -4 24 -1 32 5 13 10 14 27 5 19 -11 20
-10 14 9 -9 30 6 25 33 -10z m22 12 c0 -5 10 -11 22 -14 12 -4 20 -9 16 -12
-7 -7 -58 16 -58 27 0 4 5 8 10 8 6 0 10 -4 10 -9z m1268 -147 c-11 -11 -13
-8 -15 17 -1 17 2 27 7 24 6 -4 11 0 11 7 1 7 4 2 6 -11 3 -13 -1 -30 -9 -37z
m-1413 8 c-6 -7 -34 11 -29 19 3 5 11 3 19 -4 7 -6 12 -13 10 -15z m1459 10
c3 -5 -1 -9 -9 -9 -8 0 -12 4 -9 9 3 4 7 8 9 8 2 0 6 -4 9 -8z m-1511 -24
c-25 -12 -30 -33 -10 -41 9 -4 9 -6 0 -6 -7 -1 -17 9 -24 20 -13 24 1 39 36
38 19 0 18 -1 -2 -11z m1543 -48 c18 0 35 -3 38 -8 5 -8 -62 -5 -104 5 -23 5
-24 6 -5 13 11 4 24 4 30 -1 5 -5 24 -9 41 -9z m-161 0 c-28 -12 -37 -12 -30
0 3 6 16 10 28 9 21 0 21 -1 2 -9z m-1377 -35 c-3 -3 -9 2 -12 12 -6 14 -5 15
5 6 7 -7 10 -15 7 -18z m1317 15 c3 -5 -1 -10 -10 -10 -9 0 -13 5 -10 10 3 6
8 10 10 10 2 0 7 -4 10 -10z m-1380 -10 c18 -8 17 -9 -7 -9 -16 -1 -28 4 -28
9 0 12 8 12 35 0z m805 -10 c19 -4 28 -8 20 -9 -8 -1 -26 -4 -39 -8 -17 -4
-22 -3 -17 5 4 7 2 12 -3 12 -6 0 -11 -4 -11 -10 0 -5 -5 -10 -11 -10 -5 0 -8
4 -4 9 3 6 -3 15 -12 21 -15 9 -12 10 12 4 17 -4 46 -10 65 -14z m-935 0 c-3
-5 -13 -10 -21 -10 -8 0 -14 5 -14 10 0 6 9 10 21 10 11 0 17 -4 14 -10z
m1472 -6 c-3 -3 -12 -4 -19 -1 -8 3 -5 6 6 6 11 1 17 -2 13 -5z m-1287 -8 c0
-3 -4 -8 -10 -11 -5 -3 -10 -1 -10 4 0 6 5 11 10 11 6 0 10 -2 10 -4z m815 -6
c-3 -5 -21 -10 -38 -9 -31 1 -31 1 -7 9 36 11 52 11 45 0z m-758 -6 c-3 -3
-12 -4 -19 -1 -8 3 -5 6 6 6 11 1 17 -2 13 -5z m846 -1 c-7 -2 -21 -2 -30 0
-10 3 -4 5 12 5 17 0 24 -2 18 -5z"/>
<path d="M940 1639 c0 -5 5 -7 10 -4 6 3 10 8 10 11 0 2 -4 4 -10 4 -5 0 -10
-5 -10 -11z"/>
<path d="M1000 1605 c0 -8 2 -15 4 -15 2 0 6 7 10 15 3 8 1 15 -4 15 -6 0 -10
-7 -10 -15z"/>
<path d="M1000 1565 c0 -8 5 -15 10 -15 6 0 10 7 10 15 0 8 -4 15 -10 15 -5 0
-10 -7 -10 -15z"/>
<path d="M866 1181 c-4 -7 -5 -15 -2 -18 9 -9 19 4 14 18 -4 11 -6 11 -12 0z"/>
<path d="M830 1145 c0 -28 4 -35 20 -35 24 0 25 6 5 26 -8 8 -12 21 -9 29 4 8
1 15 -5 15 -6 0 -11 -16 -11 -35z"/>
<path d="M1168 1063 c7 -3 16 -2 19 1 4 3 -2 6 -13 5 -11 0 -14 -3 -6 -6z"/>
<path d="M1205 1060 c3 -5 11 -10 16 -10 6 0 7 5 4 10 -3 6 -11 10 -16 10 -6
0 -7 -4 -4 -10z"/>
<path d="M898 573 c-10 -2 -18 -9 -18 -14 0 -14 20 -11 36 6 16 15 13 16 -18
8z"/>
<path d="M925 540 c-10 -17 5 -31 23 -21 19 11 62 -14 62 -35 0 -19 54 -18 71
2 11 13 9 14 -15 8 -21 -5 -37 0 -71 25 -46 33 -60 37 -70 21z"/>
<path d="M866 505 c-20 -15 -20 -15 0 -15 10 0 29 -3 41 -6 18 -5 21 -3 16 15
-6 24 -30 27 -57 6z"/>
<path d="M790 500 c-9 -6 -6 -10 10 -15 12 -4 26 -3 32 3 12 12 -25 23 -42 12z"/>
<path d="M967 499 c7 -7 15 -10 18 -7 3 3 -2 9 -12 12 -14 6 -15 5 -6 -5z"/>
<path d="M1145 470 c3 -5 8 -10 11 -10 2 0 4 5 4 10 0 6 -5 10 -11 10 -5 0 -7
-4 -4 -10z"/>
<path d="M1090 459 c0 -5 9 -9 20 -9 11 0 20 4 20 8 0 4 -9 8 -20 9 -11 1 -20
-2 -20 -8z"/>
<path d="M1155 440 c-11 -5 -14 -9 -7 -9 6 -1 12 -6 12 -12 0 -5 -4 -7 -10 -4
-20 12 -49 13 -53 1 -3 -8 9 -12 40 -14 31 -1 45 3 49 13 4 8 9 13 13 10 4 -2
8 2 8 8 0 15 -24 18 -52 7z"/>
<path d="M938 433 c7 -3 16 -2 19 1 4 3 -2 6 -13 5 -11 0 -14 -3 -6 -6z"/>
<path d="M1020 420 c0 -5 5 -10 10 -10 6 0 10 5 10 10 0 6 -4 10 -10 10 -5 0
-10 -4 -10 -10z"/>
<path d="M915 410 c3 -5 11 -10 16 -10 6 0 7 5 4 10 -3 6 -11 10 -16 10 -6 0
-7 -4 -4 -10z"/>
<path d="M940 390 c-14 -4 11 -5 55 -2 44 2 82 6 84 8 8 7 -114 2 -139 -6z"/>
<path d="M6094 2550 c-27 -11 -30 -21 -39 -106 -4 -38 -18 -92 -31 -120 -26
-56 -25 -72 7 -92 58 -36 98 42 114 221 5 55 4 81 -5 92 -14 17 -17 17 -46 5z"/>
<path d="M7385 2337 c-14 -21 -14 -28 0 -67 8 -23 15 -49 15 -56 0 -24 -207
-74 -309 -74 -27 0 -161 88 -169 111 -2 5 -15 9 -28 9 -19 0 -29 -8 -40 -35
-7 -19 -14 -43 -14 -54 0 -11 -7 -42 -16 -68 -16 -46 -16 -47 7 -66 36 -29 62
-19 78 33 8 25 15 47 17 49 2 2 22 -13 45 -33 57 -49 100 -59 191 -46 62 9
240 51 288 68 8 3 19 4 23 3 5 -1 23 3 40 8 18 5 59 15 92 21 84 16 91 19 93
33 1 6 4 24 8 39 9 40 -16 48 -116 33 -47 -7 -88 -11 -92 -9 -3 2 -9 17 -13
32 -9 45 -43 92 -65 92 -11 0 -26 -11 -35 -23z"/>
<path d="M58 2323 c-9 -16 -19 -46 -22 -68 -6 -34 -4 -44 16 -62 55 -50 85
-35 87 44 2 73 -14 113 -43 113 -13 0 -28 -11 -38 -27z"/>
<path d="M7929 2284 c-13 -14 -43 -39 -66 -56 -44 -30 -52 -52 -32 -90 8 -15
17 -18 37 -13 49 12 112 56 139 97 l27 40 -27 24 c-36 30 -48 30 -78 -2z"/>
<path d="M2680 2230 c-25 -25 -26 -66 -2 -78 9 -5 36 -12 60 -15 24 -3 46 -7
48 -10 3 -2 -10 -42 -27 -88 -34 -92 -46 -156 -32 -170 5 -5 36 -12 70 -15 85
-9 94 -16 61 -51 -38 -41 -98 -139 -98 -161 0 -36 28 -47 112 -46 l79 1 -6
-26 c-14 -58 -29 -75 -70 -82 -22 -4 -52 -12 -67 -18 -21 -8 -28 -7 -28 1 0 6
-8 29 -17 50 -12 28 -23 38 -40 38 -38 0 -45 -31 -43 -187 0 -33 21 -53 56
-53 9 0 46 14 81 32 56 27 69 30 94 21 38 -15 84 -3 164 42 63 35 71 37 123
30 32 -4 70 -14 85 -22 35 -18 97 -2 97 26 0 33 -25 70 -60 86 -52 25 -176 31
-224 11 -54 -22 -56 -21 -39 23 30 76 -13 141 -92 141 l-45 0 45 61 c49 67 54
87 28 130 -16 27 -61 49 -103 49 -43 1 -41 25 19 173 9 22 8 34 -5 58 -18 37
-58 54 -141 63 -54 6 -65 4 -83 -14z"/>
<path d="M9739 2219 c-19 -19 -20 -28 -14 -112 3 -51 13 -119 20 -152 7 -33
16 -76 19 -95 3 -19 10 -55 15 -79 l9 -44 -137 6 c-75 3 -156 2 -181 -4 -25
-5 -96 -13 -159 -19 -123 -11 -161 -26 -161 -63 0 -48 12 -52 122 -49 57 2
137 10 178 18 55 10 111 12 212 8 153 -8 148 -5 148 -89 0 -47 23 -85 50 -85
32 0 43 36 35 109 -4 36 -8 80 -10 97 -3 41 -34 204 -51 277 -8 32 -14 100
-14 151 0 134 -28 178 -81 125z"/>
<path d="M76 2027 c-13 -22 -16 -100 -3 -113 3 -4 2 -15 -4 -25 -7 -15 -6 -21
6 -25 25 -10 45 4 45 30 0 14 4 35 9 49 11 27 -7 94 -26 102 -7 2 -19 -6 -27
-18z"/>
<path d="M6491 1754 c-31 -40 -32 -130 -1 -201 19 -44 152 -224 192 -259 34
-31 101 -74 114 -74 13 0 34 51 34 81 0 9 -22 33 -49 53 -53 37 -159 164 -194
231 -13 25 -23 68 -26 115 -5 67 -8 75 -27 78 -14 2 -29 -7 -43 -24z"/>
<path d="M73 1743 c-9 -3 -13 -28 -13 -74 0 -53 -3 -68 -12 -63 -7 4 -3 -3 9
-16 23 -24 49 -22 59 5 10 24 -6 143 -19 148 -7 2 -18 2 -24 0z"/>
<path d="M5619 1663 c-18 -21 -17 -116 0 -137 21 -25 56 -20 69 9 15 32 15
100 2 126 -13 23 -53 25 -71 2z"/>
<path d="M7252 1588 c-71 -9 -85 -14 -99 -34 -14 -22 -14 -26 2 -50 l17 -26
146 8 c81 4 163 9 182 10 19 0 40 2 47 3 19 2 37 69 23 86 -15 18 -180 19
-318 3z"/>
<path d="M51 1441 c-23 -23 -28 -71 -8 -71 9 0 8 -3 -2 -9 -19 -12 -6 -57 20
-72 17 -9 25 -8 37 4 12 13 13 28 6 88 -5 40 -14 74 -21 76 -6 2 -21 -5 -32
-16z"/>
<path d="M5778 1443 c-11 -3 -24 -26 -34 -58 -17 -52 -17 -55 1 -75 10 -11 27
-20 37 -20 36 0 65 119 36 148 -7 7 -14 11 -17 11 -4 -1 -14 -3 -23 -6z"/>
<path d="M4075 1216 c-30 -30 -31 -45 -4 -123 22 -66 66 -119 119 -145 39 -19
58 -14 71 19 13 35 2 66 -31 85 -36 20 -66 68 -83 126 -16 58 -39 71 -72 38z"/>
<path d="M5715 1214 c-46 -24 -62 -42 -67 -75 -9 -62 46 -78 100 -29 26 24 32
37 32 69 0 26 -5 41 -16 45 -19 7 -14 9 -49 -10z"/>
<path d="M76 1185 c-25 -26 -49 -120 -36 -144 31 -59 86 -46 91 21 10 110 -14
163 -55 123z"/>
<path d="M3878 1190 c-60 -35 9 -212 109 -281 84 -58 142 -46 129 26 -5 27
-14 38 -40 49 -42 18 -101 87 -122 145 -27 72 -39 82 -76 61z"/>
<path d="M5109 1168 c-26 -20 -32 -54 -13 -72 30 -30 75 -47 117 -44 40 3 42
5 45 38 4 55 -1 59 -113 86 -11 3 -27 -1 -36 -8z"/>
<path d="M5481 1119 c-14 -5 -31 -7 -38 -5 -23 9 -60 -12 -65 -36 -6 -34 0
-46 32 -63 37 -19 63 -19 100 0 26 14 30 21 30 59 0 31 -5 46 -16 50 -9 3 -16
6 -17 5 -1 0 -13 -5 -26 -10z"/>
<path d="M8283 1075 c-15 -20 -48 -58 -72 -86 -40 -44 -43 -53 -35 -77 11 -33
48 -41 75 -16 18 16 20 16 42 -3 12 -12 73 -45 135 -74 85 -41 111 -57 107
-69 -4 -8 -13 -51 -21 -95 -9 -44 -21 -98 -29 -120 -11 -35 -18 -41 -49 -46
-20 -3 -38 -3 -40 0 -2 3 -9 38 -15 76 -7 39 -17 104 -24 146 -18 104 -35 129
-90 129 -53 0 -146 -32 -165 -57 -11 -15 -13 -49 -7 -182 l7 -163 -44 7 c-51
9 -78 21 -79 38 -19 224 -24 252 -47 255 -13 2 -33 -5 -44 -15 -19 -17 -20
-25 -14 -128 15 -232 24 -245 171 -263 65 -8 102 -9 115 -2 26 14 32 67 28
231 -3 149 0 158 47 159 19 0 23 -12 39 -112 27 -166 35 -193 67 -224 l29 -28
77 20 c67 16 80 23 98 52 17 28 25 32 60 31 62 -1 63 -1 74 34 18 55 8 68 -64
79 -16 3 -19 10 -17 38 5 50 17 59 80 62 56 3 56 3 65 41 12 48 3 58 -54 62
-24 2 -48 4 -53 4 -4 1 -6 12 -4 26 7 35 -19 54 -148 109 -131 56 -159 73
-146 89 5 7 12 29 16 49 6 31 3 39 -13 47 -27 15 -25 15 -58 -24z"/>
<path d="M75 904 c-16 -12 -20 -29 -23 -88 -4 -66 -2 -75 19 -95 12 -11 30
-21 40 -21 33 0 42 26 36 111 -7 103 -26 128 -72 93z"/>
<path d="M9825 791 c-33 -26 -69 -64 -79 -82 -18 -34 -18 -35 3 -74 27 -51 27
-55 -9 -55 -25 0 -35 8 -61 50 -42 68 -88 79 -109 26 -6 -14 -2 -31 11 -53 18
-32 18 -33 -1 -33 -12 0 -26 13 -36 33 -21 42 -52 75 -86 93 -34 18 -33 18
-58 -8 -28 -31 -25 -49 15 -81 49 -39 65 -84 65 -182 0 -68 3 -85 19 -99 37
-34 55 -17 65 57 l8 67 35 0 34 0 -7 -68 c-6 -67 -5 -69 22 -91 27 -21 28 -21
46 -4 12 13 19 40 23 93 7 81 13 94 41 88 16 -3 19 -11 16 -59 -6 -103 30
-137 149 -138 43 -1 82 35 77 70 -3 24 -14 30 -93 46 l-40 8 4 63 c3 67 -15
188 -30 198 -16 10 -9 20 35 53 48 36 68 89 45 117 -19 24 -42 16 -104 -35z"/>
<path d="M6562 776 c-87 -31 -149 -144 -137 -249 5 -44 3 -57 -15 -80 -30 -38
-64 -35 -134 13 -130 88 -238 77 -277 -30 -28 -75 -73 -78 -148 -10 -86 77
-168 78 -278 3 -40 -27 -82 -47 -105 -51 -35 -4 -41 -1 -71 33 -78 90 -85 95
-119 95 -68 -1 -257 -101 -293 -156 -15 -23 -15 -27 0 -50 22 -33 47 -30 113
15 71 48 108 67 149 75 29 7 34 4 63 -39 74 -107 165 -114 299 -21 61 42 113
54 140 35 10 -8 42 -33 71 -56 46 -39 57 -43 104 -43 71 0 113 28 146 98 24
52 26 53 62 49 21 -3 56 -20 83 -40 59 -46 105 -61 164 -54 38 4 52 12 83 46
47 53 69 117 61 179 -7 60 16 118 51 132 61 23 165 -20 254 -104 48 -45 52
-69 23 -132 -37 -81 -106 -106 -172 -61 -37 25 -49 55 -27 68 25 16 49 9 66
-21 23 -40 53 -39 75 3 17 31 17 37 4 69 -17 41 -72 78 -113 78 -43 0 -107
-40 -126 -80 -37 -74 -7 -173 66 -214 98 -57 162 -53 239 15 l46 40 52 -15
c84 -25 107 -22 126 20 21 43 10 68 -33 72 -16 2 -46 8 -66 13 -49 13 -41 32
24 56 50 18 70 37 82 80 5 16 1 25 -14 33 -16 9 -30 6 -68 -10 -44 -20 -48
-20 -57 -4 -46 80 -195 187 -285 204 -63 12 -66 12 -108 -4z"/>
<path d="M99 621 c-19 -16 -24 -30 -27 -89 -4 -67 -3 -71 22 -87 22 -14 32
-16 51 -7 23 11 25 17 25 87 0 110 -20 137 -71 96z"/>
<path d="M84 339 c-15 -17 -19 -35 -18 -90 2 -81 14 -101 58 -97 30 3 31 5 36
63 3 33 3 78 0 100 -4 34 -9 40 -31 43 -16 2 -32 -5 -45 -19z"/>
<path d="M2717 342 c-31 -35 -22 -68 28 -95 59 -34 98 -41 140 -27 31 10 35
16 35 45 0 56 -8 65 -55 65 -23 0 -56 7 -71 15 -38 20 -57 19 -77 -3z"/>
<path d="M3507 301 c-41 -4 -63 -12 -73 -26 -51 -69 51 -123 146 -77 32 16 35
21 35 62 0 51 -3 53 -108 41z"/>
<path d="M3038 278 c-8 -7 -18 -23 -21 -36 -12 -49 89 -86 158 -58 36 15 37
17 30 53 -4 21 -9 41 -11 45 -8 13 -139 9 -156 -4z"/>
<path d="M9465 120 c3 -5 8 -10 11 -10 2 0 4 5 4 10 0 6 -5 10 -11 10 -5 0 -7
-4 -4 -10z"/>
<path d="M7508 113 c7 -3 16 -2 19 1 4 3 -2 6 -13 5 -11 0 -14 -3 -6 -6z"/>
<path d="M7593 113 c9 -2 25 -2 35 0 9 3 1 5 -18 5 -19 0 -27 -2 -17 -5z"/>
<path d="M8228 113 c7 -3 16 -2 19 1 4 3 -2 6 -13 5 -11 0 -14 -3 -6 -6z"/>
<path d="M6408 103 c7 -3 16 -2 19 1 4 3 -2 6 -13 5 -11 0 -14 -3 -6 -6z"/>
<path d="M6678 103 c6 -2 18 -2 25 0 6 3 1 5 -13 5 -14 0 -19 -2 -12 -5z"/>
<path d="M2208 83 c7 -3 16 -2 19 1 4 3 -2 6 -13 5 -11 0 -14 -3 -6 -6z"/>
<path d="M2258 83 c12 -2 30 -2 40 0 9 3 -1 5 -23 4 -22 0 -30 -2 -17 -4z"/>
<path d="M2363 83 c26 -2 68 -2 95 0 26 2 4 3 -48 3 -52 0 -74 -1 -47 -3z"/>
<path d="M2518 83 c7 -3 16 -2 19 1 4 3 -2 6 -13 5 -11 0 -14 -3 -6 -6z"/>
<path d="M2578 83 c12 -2 30 -2 40 0 9 3 -1 5 -23 4 -22 0 -30 -2 -17 -4z"/>
<path d="M2648 83 c7 -3 16 -2 19 1 4 3 -2 6 -13 5 -11 0 -14 -3 -6 -6z"/>
<path d="M2713 83 c15 -2 39 -2 55 0 15 2 2 4 -28 4 -30 0 -43 -2 -27 -4z"/>
<path d="M2978 83 c12 -2 32 -2 45 0 12 2 2 4 -23 4 -25 0 -35 -2 -22 -4z"/>
<path d="M3108 83 c29 -2 74 -2 100 0 26 2 2 3 -53 3 -55 0 -76 -1 -47 -3z"/>
<path d="M3298 83 c6 -2 18 -2 25 0 6 3 1 5 -13 5 -14 0 -19 -2 -12 -5z"/>
<path d="M1883 73 c53 -2 141 -2 195 0 53 1 9 3 -98 3 -107 0 -151 -2 -97 -3z"/>
<path d="M1343 63 c65 -2 168 -2 230 0 62 1 9 3 -118 3 -126 0 -177 -2 -112
-3z"/>
<path d="M470 50 c19 -13 30 -13 30 0 0 6 -10 10 -22 10 -19 0 -20 -2 -8 -10z"/>
<path d="M683 53 c20 -2 54 -2 75 0 20 2 3 4 -38 4 -41 0 -58 -2 -37 -4z"/>
<path d="M838 53 c7 -3 16 -2 19 1 4 3 -2 6 -13 5 -11 0 -14 -3 -6 -6z"/>
<path d="M898 53 c12 -2 32 -2 45 0 12 2 2 4 -23 4 -25 0 -35 -2 -22 -4z"/>
<path d="M998 53 c7 -3 16 -2 19 1 4 3 -2 6 -13 5 -11 0 -14 -3 -6 -6z"/>
</g>
</svg>
