<?xml version="1.0" standalone="no"?>
<!DOCTYPE svg PUBLIC "-//W3C//DTD SVG 20010904//EN"
 "http://www.w3.org/TR/2001/REC-SVG-20010904/DTD/svg10.dtd">
<svg version="1.0" xmlns="http://www.w3.org/2000/svg"
 width="501.000000pt" height="401.000000pt" viewBox="0 0 501.000000 401.000000"
 preserveAspectRatio="xMidYMid meet">

<g transform="translate(0.000000,401.000000) scale(0.100000,-0.100000)"
fill="#000000" stroke="none">
<path d="M430 3999 c-47 -4 -163 -7 -257 -8 l-173 -1 1 -1997 c1 -1099 3
-1990 6 -1980 5 20 23 23 23 3 0 -22 318 -21 343 1 40 37 -3 87 -71 81 -34 -3
-38 0 -57 37 l-20 40 30 10 c20 7 31 18 33 33 5 32 -21 52 -68 52 -37 0 -41
-3 -46 -29 -6 -27 -7 -28 -40 -18 -26 8 -34 16 -34 34 0 18 5 23 25 23 15 0
31 10 41 25 16 25 16 27 -6 50 -13 14 -32 25 -42 25 -14 0 -18 8 -18 38 l0 37
128 2 128 2 21 -49 c17 -37 32 -54 62 -70 22 -11 47 -20 54 -20 8 0 22 -11 31
-25 29 -44 126 -26 126 23 0 6 17 16 37 22 47 15 117 55 163 92 21 17 46 28
64 28 23 0 27 -3 18 -12 -17 -17 -15 -54 4 -72 19 -20 83 -20 108 -1 19 14 31
65 16 65 -4 0 -10 6 -13 13 -3 9 40 11 202 9 113 -2 208 -6 210 -8 2 -2 -1
-15 -7 -29 -9 -19 -19 -25 -45 -25 -47 0 -71 -28 -57 -65 6 -15 19 -29 30 -32
11 -3 20 -7 20 -9 0 -2 -21 -56 -46 -119 -41 -102 -48 -114 -64 -105 -49 26
-120 3 -120 -40 0 -10 -6 -21 -12 -23 -7 -3 857 -6 1920 -6 l1932 -1 -2 458
c-1 251 -3 426 -5 387 -2 -38 -5 -85 -8 -103 l-6 -32 -434 0 c-238 1 -463 -2
-499 -6 -66 -7 -82 1 -52 25 19 16 96 144 96 159 0 8 19 12 54 12 69 0 176 33
203 62 11 13 35 50 54 83 30 54 34 68 35 141 1 77 3 84 46 155 165 274 312
550 312 584 0 25 -20 54 -107 150 -59 66 -107 125 -107 130 0 6 24 30 54 54
152 120 173 258 74 473 -33 72 -114 160 -177 193 -49 25 -366 114 -408 115
-15 0 -25 9 -32 33 -28 85 -152 222 -240 267 -104 52 -246 74 -389 60 -92 -10
-153 -34 -262 -104 l-70 -46 -54 14 c-30 8 -106 20 -169 27 l-115 13 -69 -41
c-38 -23 -100 -65 -139 -93 -38 -28 -123 -89 -189 -136 -66 -47 -122 -89 -125
-93 -8 -13 -123 -91 -127 -87 -2 2 -13 36 -24 75 -29 107 -85 209 -148 271
-61 60 -180 125 -264 145 -208 49 -473 -36 -628 -202 -54 -58 -145 -193 -182
-270 -30 -64 -32 -76 -34 -186 l-1 -118 -84 -51 c-79 -48 -194 -116 -430 -251
-117 -68 -144 -100 -135 -159 12 -85 81 -489 108 -637 37 -202 50 -262 119
-544 l31 -127 -40 -46 c-22 -26 -52 -70 -66 -99 -28 -61 -40 -65 -191 -65
l-91 0 -7 103 c-6 92 -11 214 -34 727 -10 212 -7 2311 2 2381 l8 56 271 8
c341 10 539 10 1472 -5 475 -7 858 -8 1045 -2 334 10 649 7 1115 -9 201 -7
407 -8 555 -3 129 5 292 7 363 5 l127 -3 0 77 0 78 -312 -8 c-422 -12 -488
-12 -973 3 -337 11 -503 11 -840 1 -327 -9 -595 -10 -1210 0 -845 12 -1110 12
-1245 0z m1327 -816 c138 -68 217 -193 243 -384 17 -120 2 -200 -59 -321 -53
-104 -53 -100 1 -146 25 -23 27 -23 61 -7 58 27 136 196 152 327 6 45 8 48 83
97 76 49 124 82 343 236 63 44 141 97 173 118 l59 39 96 -11 c52 -7 97 -14 99
-16 3 -3 -12 -41 -32 -86 -21 -45 -43 -104 -49 -132 -13 -55 -18 -59 -427
-368 -153 -115 -320 -263 -340 -299 -5 -9 -11 -63 -14 -120 -10 -172 -43 -480
-77 -725 -14 -99 -13 -143 3 -165 7 -10 81 -108 165 -219 l152 -202 -5 -82
c-8 -109 -39 -308 -69 -437 -14 -58 -29 -136 -35 -175 -6 -38 -12 -71 -14 -72
-2 -2 -75 -2 -163 -1 l-160 3 23 80 c40 133 92 343 115 462 l22 112 -28 43
c-72 109 -290 380 -312 389 -93 35 -139 -33 -72 -109 19 -20 60 -72 92 -115
31 -42 82 -111 113 -152 55 -73 56 -76 49 -122 -10 -66 -48 -221 -97 -388 -22
-77 -45 -156 -50 -176 l-10 -37 -131 -4 c-72 -2 -148 -1 -169 2 l-38 5 46 110
c84 206 124 315 124 343 0 21 -23 54 -91 133 -50 57 -111 131 -134 164 -167
234 -254 602 -255 1073 l0 212 -32 20 c-18 11 -43 20 -56 20 -22 0 -255 -149
-340 -217 -44 -36 -47 -52 -21 -108 57 -125 111 -343 143 -575 9 -63 22 -151
28 -195 18 -117 15 -311 -5 -356 -20 -44 -86 -104 -157 -143 -39 -21 -72 -30
-123 -34 -83 -6 -97 5 -97 75 0 59 21 104 72 156 24 24 49 50 55 58 14 18 15
11 -65 364 -49 214 -119 579 -142 740 -15 110 -29 199 -36 234 -6 27 -2 31 67
68 129 69 213 116 253 141 76 47 226 132 233 132 5 0 23 -23 42 -51 19 -27 57
-70 85 -95 43 -39 54 -45 81 -40 31 6 65 38 65 62 0 8 -23 39 -51 71 -109 120
-149 265 -111 401 27 96 61 151 141 233 119 121 229 175 396 196 92 12 107 9
192 -34z m2563 -329 c111 -33 145 -50 203 -104 50 -46 70 -80 93 -165 28 -100
15 -147 -57 -209 -51 -43 -93 -53 -150 -34 -64 21 -80 50 -88 156 -7 107 -17
121 -98 146 -104 31 -113 36 -108 60 5 21 12 112 14 173 l1 32 53 -15 c28 -9
90 -26 137 -40z m-1370 -241 c6 -26 16 -54 22 -61 17 -20 36 -13 -226 -82 -68
-18 -104 -24 -95 -15 25 23 272 205 280 205 3 0 12 -21 19 -47z m40 -650 c1
-42 30 -355 40 -422 5 -40 19 -117 30 -170 32 -163 33 -176 14 -192 -9 -7 -57
-68 -106 -134 -49 -66 -112 -149 -141 -184 -77 -95 -107 -141 -107 -166 0 -27
-15 -32 -118 -41 l-71 -7 6 91 c6 89 5 91 -27 144 -33 54 -119 171 -242 330
-37 47 -65 88 -63 90 11 11 55 267 65 383 7 72 14 133 16 137 5 7 125 36 304
74 63 13 174 37 245 53 161 35 155 35 155 14z m1144 -216 c-22 -37 -42 -60
-45 -54 -4 7 -9 44 -12 82 -4 39 -9 88 -13 110 l-6 40 57 -57 58 -56 -39 -65z
m-3105 -329 c21 -146 51 -277 88 -381 46 -133 131 -308 182 -376 23 -30 41
-56 41 -58 0 -6 -338 2 -344 7 -3 3 2 28 10 55 12 39 14 78 10 180 -3 72 -10
148 -15 170 -6 22 -11 65 -12 95 -1 46 -33 245 -55 352 -5 23 -3 27 22 31 63
9 60 12 73 -75z m3961 -858 c0 -13 -7 -20 -18 -20 -48 0 -56 -53 -12 -78 27
-15 30 -22 30 -67 0 -105 -13 -215 -25 -215 -7 0 -19 -8 -29 -19 -18 -19 -14
-43 12 -73 14 -17 12 -18 -36 -18 -51 0 -52 1 -52 29 0 34 -14 41 -81 41 -42
0 -51 -3 -58 -22 -5 -13 -6 -29 -3 -36 4 -11 -16 -12 -99 -8 -142 8 -190 8
-290 1 l-86 -7 -7 26 c-6 23 -11 26 -51 26 -37 0 -47 -4 -61 -25 l-17 -26
-141 3 c-138 3 -141 4 -144 25 -3 19 1 23 23 23 45 0 65 17 65 56 0 28 -5 36
-26 44 -14 6 -36 7 -48 4 -28 -7 -32 4 -42 118 -7 77 -7 77 19 83 61 16 68 94
10 110 -27 8 -26 9 17 16 25 4 72 8 105 8 59 0 59 0 33 -15 -32 -17 -37 -48
-11 -76 21 -24 58 -23 83 2 26 26 26 55 0 73 -19 13 -18 15 26 21 26 3 95 6
154 6 103 0 108 -1 103 -20 -7 -25 10 -46 42 -53 33 -6 58 14 58 46 l0 27 99
0 c94 0 98 -1 88 -19 -20 -38 12 -71 69 -71 39 0 70 32 63 65 l-4 24 118 4
c66 1 120 4 122 5 1 1 2 -7 2 -18z m-2250 -67 c0 -33 0 -33 -49 -33 -66 0 -81
-7 -81 -39 0 -40 18 -51 81 -51 l57 0 7 -117 c12 -223 13 -215 -27 -211 -25 2
-34 8 -36 25 -7 46 -112 39 -112 -7 0 -17 -7 -20 -39 -20 -21 0 -53 -3 -70 -6
-27 -6 -31 -4 -31 15 0 17 6 21 33 21 37 0 50 7 65 36 20 38 5 62 -43 69 l-42
7 19 86 c26 122 26 122 53 122 39 0 65 75 30 85 -8 3 -23 7 -32 10 -34 11 6
26 88 33 133 11 129 12 129 -25z m-2670 -373 c0 -5 -9 -10 -20 -10 -13 0 -20
-7 -20 -20 0 -11 -4 -20 -10 -20 -14 0 -13 33 2 48 15 15 48 16 48 2z m94 -6
c9 -24 7 -44 -4 -44 -5 0 -10 9 -10 20 0 13 -7 20 -20 20 -11 0 -20 5 -20 10
0 16 47 11 54 -6z m-49 -64 c0 -18 -6 -26 -23 -28 -24 -4 -38 18 -28 44 3 9
15 14 28 12 17 -2 23 -10 23 -28z"/>
<path d="M4154 460 c-45 -10 -54 -18 -54 -50 0 -37 29 -54 76 -45 36 6 57 33
52 67 -4 26 -33 37 -74 28z"/>
<path d="M4438 426 c-38 -29 -8 -86 45 -86 34 0 57 33 48 68 -6 22 -14 27 -42
29 -19 2 -42 -3 -51 -11z"/>
<path d="M4689 419 c-25 -25 -24 -44 3 -69 56 -52 160 -1 130 65 -10 22 -17
25 -63 23 -36 0 -57 -6 -70 -19z"/>
<path d="M3913 390 c-45 -10 -65 -29 -61 -59 6 -54 113 -67 136 -17 23 51 -14
89 -75 76z"/>
<path d="M4253 275 c-26 -18 -30 -57 -8 -75 8 -6 32 -14 53 -17 32 -4 44 -1
61 16 22 22 26 47 13 68 -14 22 -94 27 -119 8z"/>
<path d="M4051 266 c-48 -17 -60 -39 -37 -65 20 -22 70 -28 94 -12 17 10 23
62 10 79 -12 15 -22 14 -67 -2z"/>
<path d="M4806 264 c-20 -19 -21 -58 -3 -73 26 -21 75 -24 102 -7 31 21 35 70
6 86 -29 15 -87 12 -105 -6z"/>
<path d="M4500 220 c-25 -25 -25 -42 0 -65 27 -24 89 -24 107 1 18 25 16 71
-3 78 -33 13 -84 6 -104 -14z"/>
<path d="M2508 319 c-21 -12 -24 -59 -6 -77 7 -7 31 -12 55 -12 45 0 63 17 63
59 0 36 -70 55 -112 30z"/>
<path d="M2648 218 c-43 -36 -19 -88 41 -88 31 0 40 5 49 25 15 31 6 54 -25
66 -32 12 -46 11 -65 -3z"/>
<path d="M3978 3753 c-25 -29 -128 -216 -128 -234 0 -23 43 -59 71 -59 13 0
37 12 52 26 33 30 117 194 117 227 0 50 -79 78 -112 40z"/>
<path d="M1592 3723 c-27 -23 -29 -35 -13 -116 12 -63 16 -70 48 -85 39 -19
60 -11 81 31 17 34 5 130 -20 162 -23 30 -66 33 -96 8z"/>
<path d="M3140 3698 c-16 -27 -50 -124 -86 -250 -6 -20 41 -48 79 -48 45 0 65
29 91 130 38 150 38 157 14 180 -34 31 -75 26 -98 -12z"/>
<path d="M3541 3713 c-11 -10 -32 -49 -46 -88 -22 -62 -23 -71 -10 -92 47 -71
114 -44 149 61 9 27 16 62 16 76 0 53 -65 79 -109 43z"/>
<path d="M1932 3697 c-25 -26 -28 -88 -12 -212 10 -77 24 -95 76 -95 46 0 68
38 66 112 -2 83 -21 180 -39 201 -22 24 -65 21 -91 -6z"/>
<path d="M2341 3686 c-22 -23 -25 -38 -32 -158 -13 -224 -12 -278 9 -284 9 -3
25 -10 34 -15 27 -14 43 -11 65 14 18 19 22 41 29 162 10 178 11 282 2 290 -3
4 -24 9 -45 12 -32 4 -42 1 -62 -21z"/>
<path d="M4358 3543 c-88 -87 -164 -166 -170 -176 -7 -14 -4 -27 14 -53 21
-33 26 -35 63 -31 36 5 54 20 198 169 145 149 158 165 153 192 -9 42 -24 56
-63 56 -32 0 -50 -15 -195 -157z"/>
<path d="M768 3678 c-16 -6 -31 -21 -37 -39 -9 -26 -7 -36 16 -72 44 -70 192
-273 214 -293 26 -24 54 -27 69 -9 7 8 18 15 25 15 17 0 25 23 25 73 0 38 -10
54 -110 179 -60 75 -113 139 -118 142 -18 11 -58 13 -84 4z"/>
<path d="M2686 3638 c-21 -20 -26 -36 -35 -126 -15 -141 -16 -136 22 -150 83
-30 104 -8 117 128 13 121 10 142 -25 158 -37 17 -51 15 -79 -10z"/>
<path d="M1201 3619 c-13 -20 -17 -38 -12 -48 4 -9 20 -44 36 -78 25 -55 53
-82 70 -65 3 3 15 7 28 9 32 5 39 17 44 70 2 35 -3 60 -19 93 -22 44 -24 45
-75 48 -50 3 -54 1 -72 -29z"/>
<path d="M4514 3326 c-126 -95 -139 -112 -118 -155 35 -69 87 -60 194 34 86
76 93 89 68 132 -29 49 -69 46 -144 -11z"/>
<path d="M601 3244 c-27 -34 -26 -55 2 -81 40 -38 140 -87 172 -85 41 4 75 28
75 55 0 54 -12 69 -84 103 -88 42 -136 45 -165 8z"/>
<path d="M4838 3225 c-14 -8 -63 -39 -108 -69 -45 -30 -85 -56 -91 -58 -16 -5
21 -98 39 -99 10 -1 28 -3 41 -4 53 -5 231 128 231 172 0 30 -38 73 -63 73
-12 -1 -34 -7 -49 -15z"/>
<path d="M246 3079 c-50 -40 -31 -85 64 -150 19 -13 77 -59 128 -101 50 -43
102 -78 113 -78 12 0 34 9 50 21 56 39 31 94 -86 187 -113 92 -191 142 -218
142 -13 0 -36 -9 -51 -21z"/>
<path d="M181 2714 c-50 -42 -43 -75 25 -119 58 -37 147 -80 197 -95 30 -10
85 8 106 34 11 13 10 22 -6 53 -11 20 -26 40 -34 43 -8 4 -23 12 -34 19 -55
32 -185 91 -203 91 -11 0 -34 -12 -51 -26z"/>
<path d="M242 404 c-49 -34 -4 -92 64 -81 64 11 82 44 42 78 -26 23 -76 25
-106 3z"/>
<path d="M1175 411 c-54 -8 -77 -46 -52 -85 34 -51 145 -16 147 45 0 14 -42
52 -52 48 -2 -1 -21 -5 -43 -8z"/>
<path d="M720 331 c-13 -26 5 -67 34 -75 47 -13 71 -6 89 24 17 28 17 30 -3
50 -28 28 -105 28 -120 1z"/>
<path d="M1005 275 c-5 -2 -22 -6 -37 -9 -46 -10 -33 -78 18 -90 39 -10 61 1
74 37 9 28 8 34 -11 50 -21 17 -25 18 -44 12z"/>
<path d="M358 224 c-15 -31 -2 -55 35 -68 28 -10 73 12 84 40 10 26 -26 54
-69 54 -32 0 -40 -5 -50 -26z"/>
<path d="M1200 232 c-52 -8 -66 -46 -30 -82 28 -28 75 -26 94 3 29 44 -6 88
-64 79z"/>
<path d="M552 188 c-14 -14 -16 -47 -3 -66 4 -8 26 -16 47 -19 32 -4 43 -1 61
19 19 20 21 27 10 48 -10 20 -21 26 -57 28 -26 2 -50 -2 -58 -10z"/>
<path d="M736 114 c-21 -21 -20 -40 4 -64 26 -26 81 -26 103 -2 23 25 21 59
-2 72 -29 15 -87 12 -105 -6z"/>
<path d="M986 104 c-19 -18 -19 -19 -5 -47 16 -30 28 -37 66 -37 31 0 63 28
63 57 0 39 -92 60 -124 27z"/>
<path d="M497 32 c-10 -10 -17 -22 -17 -25 0 -4 34 -7 75 -7 49 0 75 4 75 11
0 38 -103 54 -133 21z"/>
</g>
</svg>
